<?xml version="1.0" encoding="utf-8"?>
<!-- Generator: Adobe Illustrator 18.1.0, SVG Export Plug-In . SVG Version: 6.00 Build 0)  -->
<svg version="1.1" xmlns="http://www.w3.org/2000/svg" xmlns:xlink="http://www.w3.org/1999/xlink" x="0px" y="0px"
	 viewBox="0 0 301.6 190.6" enable-background="new 0 0 301.6 190.6" xml:space="preserve">
<g id="boombox">
	<g>
		<g>
			<defs>
				<rect id="SVGID_1_" x="0" y="0" width="301.6" height="190.6"/>
			</defs>
			<clipPath id="SVGID_2_">
				<use xlink:href="#SVGID_1_"  overflow="visible"/>
			</clipPath>
			<g clip-path="url(#SVGID_2_)">
				<defs>
					<rect id="SVGID_3_" x="0" y="0" width="301.6" height="190.6"/>
				</defs>
				<clipPath id="SVGID_4_">
					<use xlink:href="#SVGID_3_"  overflow="visible"/>
				</clipPath>
				<g clip-path="url(#SVGID_4_)">
					<defs>
						<rect id="SVGID_5_" x="0" y="0" width="301.6" height="190.6"/>
					</defs>
					<clipPath id="SVGID_6_">
						<use xlink:href="#SVGID_5_"  overflow="visible"/>
					</clipPath>
					<g clip-path="url(#SVGID_6_)">
						<g>
							<defs>
								<rect id="SVGID_7_" x="34" y="3.6" width="185.5" height="51.7"/>
							</defs>
							<clipPath id="SVGID_8_">
								<use xlink:href="#SVGID_7_"  overflow="visible"/>
							</clipPath>
							<rect x="67.2" y="36.8" clip-path="url(#SVGID_8_)" fill="#939598" width="152.3" height="18.6"/>
							<rect x="66.8" y="36.5" clip-path="url(#SVGID_8_)" fill="#939598" width="152.3" height="18.6"/>
							<rect x="66.5" y="36.1" clip-path="url(#SVGID_8_)" fill="#939598" width="152.3" height="18.6"/>
							<rect x="66.2" y="35.8" clip-path="url(#SVGID_8_)" fill="#939598" width="152.3" height="18.6"/>
							<rect x="65.8" y="35.5" clip-path="url(#SVGID_8_)" fill="#939598" width="152.3" height="18.6"/>
							<rect x="65.5" y="35.1" clip-path="url(#SVGID_8_)" fill="#939598" width="152.3" height="18.6"/>
							<rect x="65.2" y="34.8" clip-path="url(#SVGID_8_)" fill="#939598" width="152.3" height="18.6"/>
							<rect x="64.8" y="34.5" clip-path="url(#SVGID_8_)" fill="#939598" width="152.3" height="18.6"/>
							<rect x="64.5" y="34.1" clip-path="url(#SVGID_8_)" fill="#939598" width="152.3" height="18.6"/>
							<rect x="64.2" y="33.8" clip-path="url(#SVGID_8_)" fill="#939598" width="152.3" height="18.6"/>
							<rect x="63.8" y="33.5" clip-path="url(#SVGID_8_)" fill="#939598" width="152.3" height="18.6"/>
							<rect x="63.5" y="33.1" clip-path="url(#SVGID_8_)" fill="#939598" width="152.3" height="18.6"/>
							<rect x="63.2" y="32.8" clip-path="url(#SVGID_8_)" fill="#939598" width="152.3" height="18.6"/>
							<rect x="62.8" y="32.5" clip-path="url(#SVGID_8_)" fill="#939598" width="152.3" height="18.6"/>
							<rect x="62.5" y="32.2" clip-path="url(#SVGID_8_)" fill="#939598" width="152.3" height="18.6"/>
							<rect x="62.2" y="31.8" clip-path="url(#SVGID_8_)" fill="#939598" width="152.3" height="18.6"/>
							<rect x="61.9" y="31.5" clip-path="url(#SVGID_8_)" fill="#939598" width="152.3" height="18.6"/>
							<rect x="61.5" y="31.2" clip-path="url(#SVGID_8_)" fill="#939598" width="152.3" height="18.6"/>
							<rect x="61.2" y="30.8" clip-path="url(#SVGID_8_)" fill="#939598" width="152.3" height="18.6"/>
							<rect x="60.9" y="30.5" clip-path="url(#SVGID_8_)" fill="#939598" width="152.3" height="18.6"/>
							<rect x="60.5" y="30.2" clip-path="url(#SVGID_8_)" fill="#939598" width="152.3" height="18.6"/>
							<rect x="60.2" y="29.8" clip-path="url(#SVGID_8_)" fill="#939598" width="152.3" height="18.6"/>
							<rect x="59.9" y="29.5" clip-path="url(#SVGID_8_)" fill="#939598" width="152.3" height="18.6"/>
							<rect x="59.5" y="29.2" clip-path="url(#SVGID_8_)" fill="#939598" width="152.3" height="18.6"/>
							<rect x="59.2" y="28.8" clip-path="url(#SVGID_8_)" fill="#939598" width="152.3" height="18.6"/>
							<rect x="58.9" y="28.5" clip-path="url(#SVGID_8_)" fill="#939598" width="152.3" height="18.6"/>
							<rect x="58.5" y="28.2" clip-path="url(#SVGID_8_)" fill="#939598" width="152.3" height="18.6"/>
							<rect x="58.2" y="27.8" clip-path="url(#SVGID_8_)" fill="#939598" width="152.3" height="18.6"/>
							<rect x="57.9" y="27.5" clip-path="url(#SVGID_8_)" fill="#939598" width="152.3" height="18.6"/>
							<rect x="57.5" y="27.2" clip-path="url(#SVGID_8_)" fill="#939598" width="152.3" height="18.6"/>
							<rect x="57.2" y="26.9" clip-path="url(#SVGID_8_)" fill="#939598" width="152.3" height="18.6"/>
							<rect x="56.9" y="26.5" clip-path="url(#SVGID_8_)" fill="#939598" width="152.3" height="18.6"/>
							<rect x="56.5" y="26.2" clip-path="url(#SVGID_8_)" fill="#939598" width="152.3" height="18.6"/>
							<rect x="56.2" y="25.9" clip-path="url(#SVGID_8_)" fill="#939598" width="152.3" height="18.6"/>
							<rect x="55.9" y="25.5" clip-path="url(#SVGID_8_)" fill="#939598" width="152.3" height="18.6"/>
							<rect x="55.6" y="25.2" clip-path="url(#SVGID_8_)" fill="#939598" width="152.3" height="18.6"/>
							<rect x="55.2" y="24.9" clip-path="url(#SVGID_8_)" fill="#939598" width="152.3" height="18.6"/>
							<rect x="54.9" y="24.5" clip-path="url(#SVGID_8_)" fill="#939598" width="152.3" height="18.6"/>
							<rect x="54.6" y="24.2" clip-path="url(#SVGID_8_)" fill="#939598" width="152.3" height="18.6"/>
							<rect x="54.2" y="23.9" clip-path="url(#SVGID_8_)" fill="#939598" width="152.3" height="18.6"/>
							<rect x="53.9" y="23.5" clip-path="url(#SVGID_8_)" fill="#939598" width="152.3" height="18.6"/>
							<rect x="53.6" y="23.2" clip-path="url(#SVGID_8_)" fill="#939598" width="152.3" height="18.6"/>
							<rect x="53.2" y="22.9" clip-path="url(#SVGID_8_)" fill="#939598" width="152.3" height="18.6"/>
							<rect x="52.9" y="22.5" clip-path="url(#SVGID_8_)" fill="#939598" width="152.3" height="18.6"/>
							<rect x="52.6" y="22.2" clip-path="url(#SVGID_8_)" fill="#939598" width="152.3" height="18.6"/>
							<rect x="52.2" y="21.9" clip-path="url(#SVGID_8_)" fill="#939598" width="152.3" height="18.6"/>
							<rect x="51.9" y="21.5" clip-path="url(#SVGID_8_)" fill="#939598" width="152.3" height="18.6"/>
							<rect x="51.6" y="21.2" clip-path="url(#SVGID_8_)" fill="#939598" width="152.3" height="18.6"/>
							<rect x="51.2" y="20.9" clip-path="url(#SVGID_8_)" fill="#939598" width="152.3" height="18.6"/>
							<rect x="50.9" y="20.6" clip-path="url(#SVGID_8_)" fill="#939598" width="152.3" height="18.6"/>
							<rect x="50.6" y="20.2" clip-path="url(#SVGID_8_)" fill="#939598" width="152.3" height="18.6"/>
							<rect x="50.3" y="19.9" clip-path="url(#SVGID_8_)" fill="#939598" width="152.3" height="18.6"/>
							<rect x="49.9" y="19.6" clip-path="url(#SVGID_8_)" fill="#939598" width="152.3" height="18.6"/>
							<rect x="49.6" y="19.2" clip-path="url(#SVGID_8_)" fill="#939598" width="152.3" height="18.6"/>
							<rect x="49.3" y="18.9" clip-path="url(#SVGID_8_)" fill="#939598" width="152.3" height="18.6"/>
							<rect x="48.9" y="18.6" clip-path="url(#SVGID_8_)" fill="#939598" width="152.3" height="18.6"/>
							<rect x="48.6" y="18.2" clip-path="url(#SVGID_8_)" fill="#939598" width="152.3" height="18.6"/>
							<rect x="48.3" y="17.9" clip-path="url(#SVGID_8_)" fill="#939598" width="152.3" height="18.6"/>
							<rect x="47.9" y="17.6" clip-path="url(#SVGID_8_)" fill="#939598" width="152.3" height="18.6"/>
							<rect x="47.6" y="17.2" clip-path="url(#SVGID_8_)" fill="#939598" width="152.3" height="18.6"/>
							<rect x="47.3" y="16.9" clip-path="url(#SVGID_8_)" fill="#939598" width="152.3" height="18.6"/>
							<rect x="46.9" y="16.6" clip-path="url(#SVGID_8_)" fill="#939598" width="152.3" height="18.6"/>
							<rect x="46.6" y="16.2" clip-path="url(#SVGID_8_)" fill="#939598" width="152.3" height="18.6"/>
							<rect x="46.3" y="15.9" clip-path="url(#SVGID_8_)" fill="#939598" width="152.3" height="18.6"/>
							<rect x="45.9" y="15.6" clip-path="url(#SVGID_8_)" fill="#939598" width="152.3" height="18.6"/>
							<rect x="45.6" y="15.2" clip-path="url(#SVGID_8_)" fill="#939598" width="152.3" height="18.6"/>
							<rect x="45.3" y="14.9" clip-path="url(#SVGID_8_)" fill="#939598" width="152.3" height="18.6"/>
							<rect x="44.9" y="14.6" clip-path="url(#SVGID_8_)" fill="#939598" width="152.3" height="18.6"/>
							<rect x="44.6" y="14.3" clip-path="url(#SVGID_8_)" fill="#939598" width="152.3" height="18.6"/>
							<rect x="44.3" y="13.9" clip-path="url(#SVGID_8_)" fill="#939598" width="152.3" height="18.6"/>
							<rect x="44" y="13.6" clip-path="url(#SVGID_8_)" fill="#939598" width="152.3" height="18.6"/>
							<rect x="43.6" y="13.3" clip-path="url(#SVGID_8_)" fill="#939598" width="152.3" height="18.6"/>
							<rect x="43.3" y="12.9" clip-path="url(#SVGID_8_)" fill="#939598" width="152.3" height="18.6"/>
							<rect x="43" y="12.6" clip-path="url(#SVGID_8_)" fill="#939598" width="152.3" height="18.6"/>
							<rect x="42.6" y="12.3" clip-path="url(#SVGID_8_)" fill="#939598" width="152.3" height="18.6"/>
							<rect x="42.3" y="11.9" clip-path="url(#SVGID_8_)" fill="#939598" width="152.3" height="18.6"/>
							<rect x="42" y="11.6" clip-path="url(#SVGID_8_)" fill="#939598" width="152.3" height="18.6"/>
							<rect x="41.6" y="11.3" clip-path="url(#SVGID_8_)" fill="#939598" width="152.3" height="18.6"/>
							<rect x="41.3" y="10.9" clip-path="url(#SVGID_8_)" fill="#939598" width="152.3" height="18.6"/>
							<rect x="41" y="10.6" clip-path="url(#SVGID_8_)" fill="#939598" width="152.3" height="18.6"/>
							<rect x="40.6" y="10.3" clip-path="url(#SVGID_8_)" fill="#939598" width="152.3" height="18.6"/>
							<rect x="40.3" y="9.9" clip-path="url(#SVGID_8_)" fill="#939598" width="152.3" height="18.6"/>
							<rect x="40" y="9.6" clip-path="url(#SVGID_8_)" fill="#939598" width="152.3" height="18.6"/>
							<rect x="39.6" y="9.3" clip-path="url(#SVGID_8_)" fill="#939598" width="152.3" height="18.6"/>
							<rect x="39.3" y="9" clip-path="url(#SVGID_8_)" fill="#939598" width="152.3" height="18.6"/>
							<rect x="39" y="8.6" clip-path="url(#SVGID_8_)" fill="#939598" width="152.3" height="18.6"/>
							<rect x="38.6" y="8.3" clip-path="url(#SVGID_8_)" fill="#939598" width="152.3" height="18.6"/>
							<rect x="38.3" y="8" clip-path="url(#SVGID_8_)" fill="#939598" width="152.3" height="18.6"/>
							<rect x="38" y="7.6" clip-path="url(#SVGID_8_)" fill="#939598" width="152.3" height="18.6"/>
							<rect x="37.7" y="7.3" clip-path="url(#SVGID_8_)" fill="#939598" width="152.3" height="18.6"/>
							<rect x="37.3" y="7" clip-path="url(#SVGID_8_)" fill="#939598" width="152.3" height="18.6"/>
							<rect x="37" y="6.6" clip-path="url(#SVGID_8_)" fill="#939598" width="152.3" height="18.6"/>
							<rect x="36.7" y="6.3" clip-path="url(#SVGID_8_)" fill="#939598" width="152.3" height="18.6"/>
							<rect x="36.3" y="6" clip-path="url(#SVGID_8_)" fill="#939598" width="152.3" height="18.6"/>
							<rect x="36" y="5.6" clip-path="url(#SVGID_8_)" fill="#939598" width="152.3" height="18.6"/>
							<rect x="35.7" y="5.3" clip-path="url(#SVGID_8_)" fill="#939598" width="152.3" height="18.6"/>
							<rect x="35.3" y="5" clip-path="url(#SVGID_8_)" fill="#939598" width="152.3" height="18.6"/>
							<rect x="35" y="4.6" clip-path="url(#SVGID_8_)" fill="#939598" width="152.3" height="18.6"/>
							<rect x="34.7" y="4.3" clip-path="url(#SVGID_8_)" fill="#939598" width="152.3" height="18.6"/>
							<rect x="34.3" y="4" clip-path="url(#SVGID_8_)" fill="#939598" width="152.3" height="18.6"/>
							<rect x="34" y="3.6" clip-path="url(#SVGID_8_)" fill="#939598" width="152.3" height="18.6"/>
						</g>
					</g>
					
						<rect x="34" y="3.6" clip-path="url(#SVGID_6_)" fill="none" stroke="#E6E6EA" stroke-width="11" stroke-linejoin="round" stroke-miterlimit="10" width="152.3" height="18.6"/>
				</g>
				<g clip-path="url(#SVGID_4_)">
					<defs>
						<rect id="SVGID_9_" x="0" y="0" width="301.6" height="190.6"/>
					</defs>
					<clipPath id="SVGID_10_">
						<use xlink:href="#SVGID_9_"  overflow="visible"/>
					</clipPath>
					<g clip-path="url(#SVGID_10_)">
						<g>
							<defs>
								<rect id="SVGID_11_" x="1.7" y="17.1" width="299.9" height="173.5"/>
							</defs>
							<clipPath id="SVGID_12_">
								<use xlink:href="#SVGID_11_"  overflow="visible"/>
							</clipPath>
							<rect x="84.5" y="100" clip-path="url(#SVGID_12_)" fill="#939598" width="217" height="90.6"/>
							<rect x="84.2" y="99.6" clip-path="url(#SVGID_12_)" fill="#939598" width="217" height="90.6"/>
							<rect x="83.9" y="99.3" clip-path="url(#SVGID_12_)" fill="#939598" width="217" height="90.6"/>
							<rect x="83.5" y="99" clip-path="url(#SVGID_12_)" fill="#939598" width="217" height="90.6"/>
							<rect x="83.2" y="98.6" clip-path="url(#SVGID_12_)" fill="#939598" width="217" height="90.6"/>
							<rect x="82.9" y="98.3" clip-path="url(#SVGID_12_)" fill="#939598" width="217" height="90.6"/>
							<rect x="82.5" y="98" clip-path="url(#SVGID_12_)" fill="#939598" width="217" height="90.6"/>
							<rect x="82.2" y="97.6" clip-path="url(#SVGID_12_)" fill="#939598" width="217" height="90.6"/>
							<rect x="81.9" y="97.3" clip-path="url(#SVGID_12_)" fill="#939598" width="217" height="90.6"/>
							<rect x="81.5" y="97" clip-path="url(#SVGID_12_)" fill="#939598" width="217" height="90.6"/>
							<rect x="81.2" y="96.6" clip-path="url(#SVGID_12_)" fill="#939598" width="217" height="90.6"/>
							<rect x="80.9" y="96.3" clip-path="url(#SVGID_12_)" fill="#939598" width="217" height="90.6"/>
							<rect x="80.6" y="96" clip-path="url(#SVGID_12_)" fill="#939598" width="217" height="90.6"/>
							<rect x="80.2" y="95.7" clip-path="url(#SVGID_12_)" fill="#939598" width="217" height="90.6"/>
							<rect x="79.9" y="95.3" clip-path="url(#SVGID_12_)" fill="#939598" width="217" height="90.6"/>
							<rect x="79.6" y="95" clip-path="url(#SVGID_12_)" fill="#939598" width="217" height="90.6"/>
							<rect x="79.2" y="94.7" clip-path="url(#SVGID_12_)" fill="#939598" width="217" height="90.6"/>
							<rect x="78.9" y="94.3" clip-path="url(#SVGID_12_)" fill="#939598" width="217" height="90.6"/>
							<rect x="78.6" y="94" clip-path="url(#SVGID_12_)" fill="#939598" width="217" height="90.6"/>
							<rect x="78.2" y="93.7" clip-path="url(#SVGID_12_)" fill="#939598" width="217" height="90.6"/>
							<rect x="77.9" y="93.3" clip-path="url(#SVGID_12_)" fill="#939598" width="217" height="90.6"/>
							<rect x="77.6" y="93" clip-path="url(#SVGID_12_)" fill="#939598" width="217" height="90.6"/>
							<rect x="77.2" y="92.7" clip-path="url(#SVGID_12_)" fill="#939598" width="217" height="90.6"/>
							<rect x="76.9" y="92.3" clip-path="url(#SVGID_12_)" fill="#939598" width="217" height="90.6"/>
							<rect x="76.6" y="92" clip-path="url(#SVGID_12_)" fill="#939598" width="217" height="90.6"/>
							<rect x="76.2" y="91.7" clip-path="url(#SVGID_12_)" fill="#939598" width="217" height="90.6"/>
							<rect x="75.9" y="91.3" clip-path="url(#SVGID_12_)" fill="#939598" width="217" height="90.6"/>
							<rect x="75.6" y="91" clip-path="url(#SVGID_12_)" fill="#939598" width="217" height="90.6"/>
							<rect x="75.3" y="90.7" clip-path="url(#SVGID_12_)" fill="#939598" width="217" height="90.6"/>
							<rect x="74.9" y="90.3" clip-path="url(#SVGID_12_)" fill="#939598" width="217" height="90.6"/>
							<rect x="74.6" y="90" clip-path="url(#SVGID_12_)" fill="#939598" width="217" height="90.6"/>
							<rect x="74.3" y="89.7" clip-path="url(#SVGID_12_)" fill="#939598" width="217" height="90.6"/>
							<rect x="73.9" y="89.4" clip-path="url(#SVGID_12_)" fill="#939598" width="217" height="90.6"/>
							<rect x="73.6" y="89" clip-path="url(#SVGID_12_)" fill="#939598" width="217" height="90.6"/>
							<rect x="73.3" y="88.7" clip-path="url(#SVGID_12_)" fill="#939598" width="217" height="90.6"/>
							<rect x="72.9" y="88.4" clip-path="url(#SVGID_12_)" fill="#939598" width="217" height="90.6"/>
							<rect x="72.6" y="88" clip-path="url(#SVGID_12_)" fill="#939598" width="217" height="90.6"/>
							<rect x="72.3" y="87.7" clip-path="url(#SVGID_12_)" fill="#939598" width="217" height="90.6"/>
							<rect x="71.9" y="87.4" clip-path="url(#SVGID_12_)" fill="#939598" width="217" height="90.6"/>
							<rect x="71.6" y="87" clip-path="url(#SVGID_12_)" fill="#939598" width="217" height="90.6"/>
							<rect x="71.3" y="86.7" clip-path="url(#SVGID_12_)" fill="#939598" width="217" height="90.6"/>
							<rect x="70.9" y="86.4" clip-path="url(#SVGID_12_)" fill="#939598" width="217" height="90.6"/>
							<rect x="70.6" y="86" clip-path="url(#SVGID_12_)" fill="#939598" width="217" height="90.6"/>
							<rect x="70.3" y="85.7" clip-path="url(#SVGID_12_)" fill="#939598" width="217" height="90.6"/>
							<rect x="69.9" y="85.4" clip-path="url(#SVGID_12_)" fill="#939598" width="217" height="90.6"/>
							<rect x="69.6" y="85" clip-path="url(#SVGID_12_)" fill="#939598" width="217" height="90.6"/>
							<rect x="69.3" y="84.7" clip-path="url(#SVGID_12_)" fill="#939598" width="217" height="90.6"/>
							<rect x="69" y="84.4" clip-path="url(#SVGID_12_)" fill="#939598" width="217" height="90.6"/>
							<rect x="68.6" y="84" clip-path="url(#SVGID_12_)" fill="#939598" width="217" height="90.6"/>
							<rect x="68.3" y="83.7" clip-path="url(#SVGID_12_)" fill="#939598" width="217" height="90.6"/>
							<rect x="68" y="83.4" clip-path="url(#SVGID_12_)" fill="#939598" width="217" height="90.6"/>
							<rect x="67.6" y="83.1" clip-path="url(#SVGID_12_)" fill="#939598" width="217" height="90.6"/>
							<rect x="67.3" y="82.7" clip-path="url(#SVGID_12_)" fill="#939598" width="217" height="90.6"/>
							<rect x="67" y="82.4" clip-path="url(#SVGID_12_)" fill="#939598" width="217" height="90.6"/>
							<rect x="66.6" y="82.1" clip-path="url(#SVGID_12_)" fill="#939598" width="217" height="90.6"/>
							<rect x="66.3" y="81.7" clip-path="url(#SVGID_12_)" fill="#939598" width="217" height="90.6"/>
							<rect x="66" y="81.4" clip-path="url(#SVGID_12_)" fill="#939598" width="217" height="90.6"/>
							<rect x="65.6" y="81.1" clip-path="url(#SVGID_12_)" fill="#939598" width="217" height="90.6"/>
							<rect x="65.3" y="80.7" clip-path="url(#SVGID_12_)" fill="#939598" width="217" height="90.6"/>
							<rect x="65" y="80.4" clip-path="url(#SVGID_12_)" fill="#939598" width="217" height="90.6"/>
							<rect x="64.6" y="80.1" clip-path="url(#SVGID_12_)" fill="#939598" width="217" height="90.6"/>
							<rect x="64.3" y="79.7" clip-path="url(#SVGID_12_)" fill="#939598" width="217" height="90.6"/>
							<rect x="64" y="79.4" clip-path="url(#SVGID_12_)" fill="#939598" width="217" height="90.6"/>
							<rect x="63.6" y="79.1" clip-path="url(#SVGID_12_)" fill="#939598" width="217" height="90.6"/>
							<rect x="63.3" y="78.7" clip-path="url(#SVGID_12_)" fill="#939598" width="217" height="90.6"/>
							<rect x="63" y="78.4" clip-path="url(#SVGID_12_)" fill="#939598" width="217" height="90.6"/>
							<rect x="62.7" y="78.1" clip-path="url(#SVGID_12_)" fill="#939598" width="217" height="90.6"/>
							<rect x="62.3" y="77.8" clip-path="url(#SVGID_12_)" fill="#939598" width="217" height="90.6"/>
							<rect x="62" y="77.4" clip-path="url(#SVGID_12_)" fill="#939598" width="217" height="90.6"/>
							<rect x="61.7" y="77.1" clip-path="url(#SVGID_12_)" fill="#939598" width="217" height="90.6"/>
							<rect x="61.3" y="76.8" clip-path="url(#SVGID_12_)" fill="#939598" width="217" height="90.6"/>
							<rect x="61" y="76.4" clip-path="url(#SVGID_12_)" fill="#939598" width="217" height="90.6"/>
							<rect x="60.7" y="76.1" clip-path="url(#SVGID_12_)" fill="#939598" width="217" height="90.6"/>
							<rect x="60.3" y="75.8" clip-path="url(#SVGID_12_)" fill="#939598" width="217" height="90.6"/>
							<rect x="60" y="75.4" clip-path="url(#SVGID_12_)" fill="#939598" width="217" height="90.6"/>
							<rect x="59.7" y="75.1" clip-path="url(#SVGID_12_)" fill="#939598" width="217" height="90.6"/>
							<rect x="59.3" y="74.8" clip-path="url(#SVGID_12_)" fill="#939598" width="217" height="90.6"/>
							<rect x="59" y="74.4" clip-path="url(#SVGID_12_)" fill="#939598" width="217" height="90.6"/>
							<rect x="58.7" y="74.1" clip-path="url(#SVGID_12_)" fill="#939598" width="217" height="90.6"/>
							<rect x="58.3" y="73.8" clip-path="url(#SVGID_12_)" fill="#939598" width="217" height="90.6"/>
							<rect x="58" y="73.4" clip-path="url(#SVGID_12_)" fill="#939598" width="217" height="90.6"/>
							<rect x="57.7" y="73.1" clip-path="url(#SVGID_12_)" fill="#939598" width="217" height="90.6"/>
							<rect x="57.3" y="72.8" clip-path="url(#SVGID_12_)" fill="#939598" width="217" height="90.6"/>
							<rect x="57" y="72.4" clip-path="url(#SVGID_12_)" fill="#939598" width="217" height="90.6"/>
							<rect x="56.7" y="72.1" clip-path="url(#SVGID_12_)" fill="#939598" width="217" height="90.6"/>
							<rect x="56.4" y="71.8" clip-path="url(#SVGID_12_)" fill="#939598" width="217" height="90.6"/>
							<rect x="56" y="71.5" clip-path="url(#SVGID_12_)" fill="#939598" width="217" height="90.6"/>
							<rect x="55.7" y="71.1" clip-path="url(#SVGID_12_)" fill="#939598" width="217" height="90.6"/>
							<rect x="55.4" y="70.8" clip-path="url(#SVGID_12_)" fill="#939598" width="217" height="90.6"/>
							<rect x="55" y="70.5" clip-path="url(#SVGID_12_)" fill="#939598" width="217" height="90.6"/>
							<rect x="54.7" y="70.1" clip-path="url(#SVGID_12_)" fill="#939598" width="217" height="90.6"/>
							<rect x="54.4" y="69.8" clip-path="url(#SVGID_12_)" fill="#939598" width="217" height="90.6"/>
							<rect x="54" y="69.5" clip-path="url(#SVGID_12_)" fill="#939598" width="217" height="90.6"/>
							<rect x="53.7" y="69.1" clip-path="url(#SVGID_12_)" fill="#939598" width="217" height="90.6"/>
							<rect x="53.4" y="68.8" clip-path="url(#SVGID_12_)" fill="#939598" width="217" height="90.6"/>
							<rect x="53" y="68.5" clip-path="url(#SVGID_12_)" fill="#939598" width="217" height="90.6"/>
							<rect x="52.7" y="68.1" clip-path="url(#SVGID_12_)" fill="#939598" width="217" height="90.6"/>
							<rect x="52.4" y="67.8" clip-path="url(#SVGID_12_)" fill="#939598" width="217" height="90.6"/>
							<rect x="52" y="67.5" clip-path="url(#SVGID_12_)" fill="#939598" width="217" height="90.6"/>
							<rect x="51.7" y="67.1" clip-path="url(#SVGID_12_)" fill="#939598" width="217" height="90.6"/>
							<rect x="51.4" y="66.8" clip-path="url(#SVGID_12_)" fill="#939598" width="217" height="90.6"/>
							<rect x="51.1" y="66.5" clip-path="url(#SVGID_12_)" fill="#939598" width="217" height="90.6"/>
							<rect x="50.7" y="66.1" clip-path="url(#SVGID_12_)" fill="#939598" width="217" height="90.6"/>
							<rect x="50.4" y="65.8" clip-path="url(#SVGID_12_)" fill="#939598" width="217" height="90.6"/>
							<rect x="50.1" y="65.5" clip-path="url(#SVGID_12_)" fill="#939598" width="217" height="90.6"/>
							<rect x="49.7" y="65.2" clip-path="url(#SVGID_12_)" fill="#939598" width="217" height="90.6"/>
							<rect x="49.4" y="64.8" clip-path="url(#SVGID_12_)" fill="#939598" width="217" height="90.6"/>
							<rect x="49.1" y="64.5" clip-path="url(#SVGID_12_)" fill="#939598" width="217" height="90.6"/>
							<rect x="48.7" y="64.2" clip-path="url(#SVGID_12_)" fill="#939598" width="217" height="90.6"/>
							<rect x="48.4" y="63.8" clip-path="url(#SVGID_12_)" fill="#939598" width="217" height="90.6"/>
							<rect x="48.1" y="63.5" clip-path="url(#SVGID_12_)" fill="#939598" width="217" height="90.6"/>
							<rect x="47.7" y="63.2" clip-path="url(#SVGID_12_)" fill="#939598" width="217" height="90.6"/>
							<rect x="47.4" y="62.8" clip-path="url(#SVGID_12_)" fill="#939598" width="217" height="90.6"/>
							<rect x="47.1" y="62.5" clip-path="url(#SVGID_12_)" fill="#939598" width="217" height="90.6"/>
							<rect x="46.7" y="62.2" clip-path="url(#SVGID_12_)" fill="#939598" width="217" height="90.6"/>
							<rect x="46.4" y="61.8" clip-path="url(#SVGID_12_)" fill="#939598" width="217" height="90.6"/>
							<rect x="46.1" y="61.5" clip-path="url(#SVGID_12_)" fill="#939598" width="217" height="90.6"/>
							<rect x="45.7" y="61.2" clip-path="url(#SVGID_12_)" fill="#939598" width="217" height="90.6"/>
							<rect x="45.4" y="60.8" clip-path="url(#SVGID_12_)" fill="#939598" width="217" height="90.6"/>
							<rect x="45.1" y="60.5" clip-path="url(#SVGID_12_)" fill="#939598" width="217" height="90.6"/>
							<rect x="44.8" y="60.2" clip-path="url(#SVGID_12_)" fill="#939598" width="217" height="90.6"/>
							<rect x="44.4" y="59.9" clip-path="url(#SVGID_12_)" fill="#939598" width="217" height="90.6"/>
							<rect x="44.1" y="59.5" clip-path="url(#SVGID_12_)" fill="#939598" width="217" height="90.6"/>
							<rect x="43.8" y="59.2" clip-path="url(#SVGID_12_)" fill="#939598" width="217" height="90.6"/>
							<rect x="43.4" y="58.9" clip-path="url(#SVGID_12_)" fill="#939598" width="217" height="90.6"/>
							<rect x="43.1" y="58.5" clip-path="url(#SVGID_12_)" fill="#939598" width="217" height="90.6"/>
							<rect x="42.8" y="58.2" clip-path="url(#SVGID_12_)" fill="#939598" width="217" height="90.6"/>
							<rect x="42.4" y="57.9" clip-path="url(#SVGID_12_)" fill="#939598" width="217" height="90.6"/>
							<rect x="42.1" y="57.5" clip-path="url(#SVGID_12_)" fill="#939598" width="217" height="90.6"/>
							<rect x="41.8" y="57.2" clip-path="url(#SVGID_12_)" fill="#939598" width="217" height="90.6"/>
							<rect x="41.4" y="56.9" clip-path="url(#SVGID_12_)" fill="#939598" width="217" height="90.6"/>
							<rect x="41.1" y="56.5" clip-path="url(#SVGID_12_)" fill="#939598" width="217" height="90.6"/>
							<rect x="40.8" y="56.2" clip-path="url(#SVGID_12_)" fill="#939598" width="217" height="90.6"/>
							<rect x="40.4" y="55.9" clip-path="url(#SVGID_12_)" fill="#939598" width="217" height="90.6"/>
							<rect x="40.1" y="55.5" clip-path="url(#SVGID_12_)" fill="#939598" width="217" height="90.6"/>
							<rect x="39.8" y="55.2" clip-path="url(#SVGID_12_)" fill="#939598" width="217" height="90.6"/>
							<rect x="39.4" y="54.9" clip-path="url(#SVGID_12_)" fill="#939598" width="217" height="90.6"/>
							<rect x="39.1" y="54.5" clip-path="url(#SVGID_12_)" fill="#939598" width="217" height="90.6"/>
							<rect x="38.8" y="54.2" clip-path="url(#SVGID_12_)" fill="#939598" width="217" height="90.6"/>
							<rect x="38.5" y="53.9" clip-path="url(#SVGID_12_)" fill="#939598" width="217" height="90.6"/>
							<rect x="38.1" y="53.6" clip-path="url(#SVGID_12_)" fill="#939598" width="217" height="90.6"/>
							<rect x="37.8" y="53.2" clip-path="url(#SVGID_12_)" fill="#939598" width="217" height="90.6"/>
							<rect x="37.5" y="52.9" clip-path="url(#SVGID_12_)" fill="#939598" width="217" height="90.6"/>
							<rect x="37.1" y="52.6" clip-path="url(#SVGID_12_)" fill="#939598" width="217" height="90.6"/>
							<rect x="36.8" y="52.2" clip-path="url(#SVGID_12_)" fill="#939598" width="217" height="90.6"/>
							<rect x="36.5" y="51.9" clip-path="url(#SVGID_12_)" fill="#939598" width="217" height="90.6"/>
							<rect x="36.1" y="51.6" clip-path="url(#SVGID_12_)" fill="#939598" width="217" height="90.6"/>
							<rect x="35.8" y="51.2" clip-path="url(#SVGID_12_)" fill="#939598" width="217" height="90.6"/>
							<rect x="35.5" y="50.9" clip-path="url(#SVGID_12_)" fill="#939598" width="217" height="90.6"/>
							<rect x="35.1" y="50.6" clip-path="url(#SVGID_12_)" fill="#939598" width="217" height="90.6"/>
							<rect x="34.8" y="50.2" clip-path="url(#SVGID_12_)" fill="#939598" width="217" height="90.6"/>
							<rect x="34.5" y="49.9" clip-path="url(#SVGID_12_)" fill="#939598" width="217" height="90.6"/>
							<rect x="34.1" y="49.6" clip-path="url(#SVGID_12_)" fill="#939598" width="217" height="90.6"/>
							<rect x="33.8" y="49.2" clip-path="url(#SVGID_12_)" fill="#939598" width="217" height="90.6"/>
							<rect x="33.5" y="48.9" clip-path="url(#SVGID_12_)" fill="#939598" width="217" height="90.6"/>
							<rect x="33.1" y="48.6" clip-path="url(#SVGID_12_)" fill="#939598" width="217" height="90.6"/>
							<rect x="32.8" y="48.2" clip-path="url(#SVGID_12_)" fill="#939598" width="217" height="90.6"/>
							<rect x="32.5" y="47.9" clip-path="url(#SVGID_12_)" fill="#939598" width="217" height="90.6"/>
							<rect x="32.2" y="47.6" clip-path="url(#SVGID_12_)" fill="#939598" width="217" height="90.6"/>
							<rect x="31.8" y="47.3" clip-path="url(#SVGID_12_)" fill="#939598" width="217" height="90.6"/>
							<rect x="31.5" y="46.9" clip-path="url(#SVGID_12_)" fill="#939598" width="217" height="90.6"/>
							<rect x="31.2" y="46.6" clip-path="url(#SVGID_12_)" fill="#939598" width="217" height="90.6"/>
							<rect x="30.8" y="46.3" clip-path="url(#SVGID_12_)" fill="#939598" width="217" height="90.6"/>
							<rect x="30.5" y="45.9" clip-path="url(#SVGID_12_)" fill="#939598" width="217" height="90.6"/>
							<rect x="30.2" y="45.6" clip-path="url(#SVGID_12_)" fill="#939598" width="217" height="90.6"/>
							<rect x="29.8" y="45.3" clip-path="url(#SVGID_12_)" fill="#939598" width="217" height="90.6"/>
							<rect x="29.5" y="44.9" clip-path="url(#SVGID_12_)" fill="#939598" width="217" height="90.6"/>
							<rect x="29.2" y="44.6" clip-path="url(#SVGID_12_)" fill="#939598" width="217" height="90.6"/>
							<rect x="28.8" y="44.3" clip-path="url(#SVGID_12_)" fill="#939598" width="217" height="90.6"/>
							<rect x="28.5" y="43.9" clip-path="url(#SVGID_12_)" fill="#939598" width="217" height="90.6"/>
							<rect x="28.2" y="43.6" clip-path="url(#SVGID_12_)" fill="#939598" width="217" height="90.6"/>
							<rect x="27.8" y="43.3" clip-path="url(#SVGID_12_)" fill="#939598" width="217" height="90.6"/>
							<rect x="27.5" y="42.9" clip-path="url(#SVGID_12_)" fill="#939598" width="217" height="90.6"/>
							<rect x="27.2" y="42.6" clip-path="url(#SVGID_12_)" fill="#939598" width="217" height="90.6"/>
							<rect x="26.9" y="42.3" clip-path="url(#SVGID_12_)" fill="#939598" width="217" height="90.6"/>
							<rect x="26.5" y="41.9" clip-path="url(#SVGID_12_)" fill="#939598" width="217" height="90.6"/>
							<rect x="26.2" y="41.6" clip-path="url(#SVGID_12_)" fill="#939598" width="217" height="90.6"/>
							<rect x="25.9" y="41.3" clip-path="url(#SVGID_12_)" fill="#939598" width="217" height="90.6"/>
							<rect x="25.5" y="41" clip-path="url(#SVGID_12_)" fill="#939598" width="217" height="90.6"/>
							<rect x="25.2" y="40.6" clip-path="url(#SVGID_12_)" fill="#939598" width="217" height="90.6"/>
							<rect x="24.9" y="40.3" clip-path="url(#SVGID_12_)" fill="#939598" width="217" height="90.6"/>
							<rect x="24.5" y="40" clip-path="url(#SVGID_12_)" fill="#939598" width="217" height="90.6"/>
							<rect x="24.2" y="39.6" clip-path="url(#SVGID_12_)" fill="#939598" width="217" height="90.6"/>
							<rect x="23.9" y="39.3" clip-path="url(#SVGID_12_)" fill="#939598" width="217" height="90.6"/>
							<rect x="23.5" y="39" clip-path="url(#SVGID_12_)" fill="#939598" width="217" height="90.6"/>
							<rect x="23.2" y="38.6" clip-path="url(#SVGID_12_)" fill="#939598" width="217" height="90.6"/>
							<rect x="22.9" y="38.3" clip-path="url(#SVGID_12_)" fill="#939598" width="217" height="90.6"/>
							<rect x="22.5" y="38" clip-path="url(#SVGID_12_)" fill="#939598" width="217" height="90.6"/>
							<rect x="22.2" y="37.6" clip-path="url(#SVGID_12_)" fill="#939598" width="217" height="90.6"/>
							<rect x="21.9" y="37.3" clip-path="url(#SVGID_12_)" fill="#939598" width="217" height="90.6"/>
							<rect x="21.5" y="37" clip-path="url(#SVGID_12_)" fill="#939598" width="217" height="90.6"/>
							<rect x="21.2" y="36.6" clip-path="url(#SVGID_12_)" fill="#939598" width="217" height="90.6"/>
							<rect x="20.9" y="36.3" clip-path="url(#SVGID_12_)" fill="#939598" width="217" height="90.6"/>
							<rect x="20.6" y="36" clip-path="url(#SVGID_12_)" fill="#939598" width="217" height="90.6"/>
							<rect x="20.2" y="35.7" clip-path="url(#SVGID_12_)" fill="#939598" width="217" height="90.6"/>
							<rect x="19.9" y="35.3" clip-path="url(#SVGID_12_)" fill="#939598" width="217" height="90.6"/>
							<rect x="19.6" y="35" clip-path="url(#SVGID_12_)" fill="#939598" width="217" height="90.6"/>
							<rect x="19.2" y="34.7" clip-path="url(#SVGID_12_)" fill="#939598" width="217" height="90.6"/>
							<rect x="18.9" y="34.3" clip-path="url(#SVGID_12_)" fill="#939598" width="217" height="90.6"/>
							<rect x="18.6" y="34" clip-path="url(#SVGID_12_)" fill="#939598" width="217" height="90.6"/>
							<rect x="18.2" y="33.7" clip-path="url(#SVGID_12_)" fill="#939598" width="217" height="90.6"/>
							<rect x="17.9" y="33.3" clip-path="url(#SVGID_12_)" fill="#939598" width="217" height="90.6"/>
							<rect x="17.6" y="33" clip-path="url(#SVGID_12_)" fill="#939598" width="217" height="90.6"/>
							<rect x="17.2" y="32.7" clip-path="url(#SVGID_12_)" fill="#939598" width="217" height="90.6"/>
							<rect x="16.9" y="32.3" clip-path="url(#SVGID_12_)" fill="#939598" width="217" height="90.6"/>
							<rect x="16.6" y="32" clip-path="url(#SVGID_12_)" fill="#939598" width="217" height="90.6"/>
							<rect x="16.2" y="31.7" clip-path="url(#SVGID_12_)" fill="#939598" width="217" height="90.6"/>
							<rect x="15.9" y="31.3" clip-path="url(#SVGID_12_)" fill="#939598" width="217" height="90.6"/>
							<rect x="15.6" y="31" clip-path="url(#SVGID_12_)" fill="#939598" width="217" height="90.6"/>
							<rect x="15.2" y="30.7" clip-path="url(#SVGID_12_)" fill="#939598" width="217" height="90.6"/>
							<rect x="14.9" y="30.3" clip-path="url(#SVGID_12_)" fill="#939598" width="217" height="90.6"/>
							<rect x="14.6" y="30" clip-path="url(#SVGID_12_)" fill="#939598" width="217" height="90.6"/>
							<rect x="14.3" y="29.7" clip-path="url(#SVGID_12_)" fill="#939598" width="217" height="90.6"/>
							<rect x="13.9" y="29.4" clip-path="url(#SVGID_12_)" fill="#939598" width="217" height="90.6"/>
							<rect x="13.6" y="29" clip-path="url(#SVGID_12_)" fill="#939598" width="217" height="90.6"/>
							<rect x="13.3" y="28.7" clip-path="url(#SVGID_12_)" fill="#939598" width="217" height="90.6"/>
							<rect x="12.9" y="28.4" clip-path="url(#SVGID_12_)" fill="#939598" width="217" height="90.6"/>
							<rect x="12.6" y="28" clip-path="url(#SVGID_12_)" fill="#939598" width="217" height="90.6"/>
							<rect x="12.3" y="27.7" clip-path="url(#SVGID_12_)" fill="#939598" width="217" height="90.6"/>
							<rect x="11.9" y="27.4" clip-path="url(#SVGID_12_)" fill="#939598" width="217" height="90.6"/>
							<rect x="11.6" y="27" clip-path="url(#SVGID_12_)" fill="#939598" width="217" height="90.6"/>
							<rect x="11.3" y="26.7" clip-path="url(#SVGID_12_)" fill="#939598" width="217" height="90.6"/>
							<rect x="10.9" y="26.4" clip-path="url(#SVGID_12_)" fill="#939598" width="217" height="90.6"/>
							<rect x="10.6" y="26" clip-path="url(#SVGID_12_)" fill="#939598" width="217" height="90.6"/>
							<rect x="10.3" y="25.7" clip-path="url(#SVGID_12_)" fill="#939598" width="217" height="90.6"/>
							<rect x="9.9" y="25.4" clip-path="url(#SVGID_12_)" fill="#939598" width="217" height="90.6"/>
							<rect x="9.6" y="25" clip-path="url(#SVGID_12_)" fill="#939598" width="217" height="90.6"/>
							<rect x="9.3" y="24.7" clip-path="url(#SVGID_12_)" fill="#939598" width="217" height="90.6"/>
							<rect x="9" y="24.4" clip-path="url(#SVGID_12_)" fill="#939598" width="217" height="90.6"/>
							<rect x="8.6" y="24" clip-path="url(#SVGID_12_)" fill="#939598" width="217" height="90.6"/>
							<rect x="8.3" y="23.7" clip-path="url(#SVGID_12_)" fill="#939598" width="217" height="90.6"/>
							<rect x="8" y="23.4" clip-path="url(#SVGID_12_)" fill="#939598" width="217" height="90.6"/>
							<rect x="7.6" y="23.1" clip-path="url(#SVGID_12_)" fill="#939598" width="217" height="90.6"/>
							<rect x="7.3" y="22.7" clip-path="url(#SVGID_12_)" fill="#939598" width="217" height="90.6"/>
							<rect x="7" y="22.4" clip-path="url(#SVGID_12_)" fill="#939598" width="217" height="90.6"/>
							<rect x="6.6" y="22.1" clip-path="url(#SVGID_12_)" fill="#939598" width="217" height="90.6"/>
							<rect x="6.3" y="21.7" clip-path="url(#SVGID_12_)" fill="#939598" width="217" height="90.6"/>
							<rect x="6" y="21.4" clip-path="url(#SVGID_12_)" fill="#939598" width="217" height="90.6"/>
							<rect x="5.6" y="21.1" clip-path="url(#SVGID_12_)" fill="#939598" width="217" height="90.6"/>
							<rect x="5.3" y="20.7" clip-path="url(#SVGID_12_)" fill="#939598" width="217" height="90.6"/>
							<rect x="5" y="20.4" clip-path="url(#SVGID_12_)" fill="#939598" width="217" height="90.6"/>
							<rect x="4.6" y="20.1" clip-path="url(#SVGID_12_)" fill="#939598" width="217" height="90.6"/>
							<rect x="4.3" y="19.7" clip-path="url(#SVGID_12_)" fill="#939598" width="217" height="90.6"/>
							<rect x="4" y="19.4" clip-path="url(#SVGID_12_)" fill="#939598" width="217" height="90.6"/>
							<rect x="3.6" y="19.1" clip-path="url(#SVGID_12_)" fill="#939598" width="217" height="90.6"/>
							<rect x="3.3" y="18.7" clip-path="url(#SVGID_12_)" fill="#939598" width="217" height="90.6"/>
							<rect x="3" y="18.4" clip-path="url(#SVGID_12_)" fill="#939598" width="217" height="90.6"/>
							<rect x="2.7" y="18.1" clip-path="url(#SVGID_12_)" fill="#939598" width="217" height="90.6"/>
							<rect x="2.3" y="17.7" clip-path="url(#SVGID_12_)" fill="#939598" width="217" height="90.6"/>
							<rect x="2" y="17.4" clip-path="url(#SVGID_12_)" fill="#939598" width="217" height="90.6"/>
							<rect x="1.7" y="17.1" clip-path="url(#SVGID_12_)" fill="#939598" width="217" height="90.6"/>
						</g>
					</g>
				</g>
				<rect x="1.7" y="17.1" clip-path="url(#SVGID_4_)" fill="#E6E6EA" width="217" height="90.6"/>
				<g clip-path="url(#SVGID_4_)">
					<defs>
						<rect id="SVGID_13_" x="0" y="0" width="301.6" height="190.6"/>
					</defs>
					<clipPath id="SVGID_14_">
						<use xlink:href="#SVGID_13_"  overflow="visible"/>
					</clipPath>
					
						<rect x="1.7" y="17.1" clip-path="url(#SVGID_14_)" fill="none" stroke="#E6E6EA" stroke-width="5" stroke-linejoin="round" stroke-miterlimit="10" width="217" height="90.6"/>
				</g>
				<g clip-path="url(#SVGID_4_)">
					<defs>
						<rect id="SVGID_15_" x="0" y="0" width="301.6" height="190.6"/>
					</defs>
					<clipPath id="SVGID_16_">
						<use xlink:href="#SVGID_15_"  overflow="visible"/>
					</clipPath>
					
						<circle clip-path="url(#SVGID_16_)" fill="none" stroke="#F4F4F8" stroke-width="11" stroke-miterlimit="10" cx="55.4" cy="62.4" r="30.7"/>
					
						<circle clip-path="url(#SVGID_16_)" fill="none" stroke="#F4F4F8" stroke-width="11" stroke-miterlimit="10" cx="164.2" cy="62.4" r="30.7"/>
				</g>
				<g clip-path="url(#SVGID_4_)">
					<defs>
						<path id="SVGID_17_" d="M27.4,62.4c0,15.5,12.5,28,28,28c15.5,0,28-12.5,28-28c0-15.5-12.5-28-28-28
							C39.9,34.4,27.4,46.9,27.4,62.4"/>
					</defs>
					<clipPath id="SVGID_18_">
						<use xlink:href="#SVGID_17_"  overflow="visible"/>
					</clipPath>
					
						<radialGradient id="SVGID_19_" cx="-181.0727" cy="-263.7944" r="0.663" gradientTransform="matrix(42.2025 0 0 -42.2025 7697.1064 -11070.3789)" gradientUnits="userSpaceOnUse">
						<stop  offset="0" style="stop-color:#FFFFFF"/>
						<stop  offset="4.659218e-002" style="stop-color:#EFEFEF"/>
						<stop  offset="0.2429" style="stop-color:#B2B1B1"/>
						<stop  offset="0.4309" style="stop-color:#7F7D7D"/>
						<stop  offset="0.6055" style="stop-color:#575455"/>
						<stop  offset="0.7638" style="stop-color:#3B3738"/>
						<stop  offset="0.9006" style="stop-color:#292526"/>
						<stop  offset="1" style="stop-color:#231F20"/>
					</radialGradient>
					<rect x="27.4" y="34.4" clip-path="url(#SVGID_18_)" fill="url(#SVGID_19_)" width="56" height="56"/>
				</g>
				<g clip-path="url(#SVGID_4_)">
					<defs>
						<rect id="SVGID_20_" x="0" y="0" width="301.6" height="190.6"/>
					</defs>
					<clipPath id="SVGID_21_">
						<use xlink:href="#SVGID_20_"  overflow="visible"/>
					</clipPath>
					
						<circle clip-path="url(#SVGID_21_)" fill="none" stroke="#FFFFFF" stroke-width="3" stroke-miterlimit="10" cx="55.4" cy="62.4" r="28"/>
				</g>
				<g clip-path="url(#SVGID_4_)">
					<defs>
						<path id="SVGID_22_" d="M136.2,62.4c0,15.5,12.5,28,28,28c15.5,0,28-12.5,28-28c0-15.5-12.5-28-28-28
							C148.7,34.4,136.2,46.9,136.2,62.4"/>
					</defs>
					<clipPath id="SVGID_23_">
						<use xlink:href="#SVGID_22_"  overflow="visible"/>
					</clipPath>
					
						<radialGradient id="SVGID_24_" cx="-182.3832" cy="-263.7944" r="0.663" gradientTransform="matrix(42.2025 0 0 -42.2025 7861.2222 -11070.3789)" gradientUnits="userSpaceOnUse">
						<stop  offset="0" style="stop-color:#FFFFFF"/>
						<stop  offset="4.659218e-002" style="stop-color:#EFEFEF"/>
						<stop  offset="0.2429" style="stop-color:#B2B1B1"/>
						<stop  offset="0.4309" style="stop-color:#7F7D7D"/>
						<stop  offset="0.6055" style="stop-color:#575455"/>
						<stop  offset="0.7638" style="stop-color:#3B3738"/>
						<stop  offset="0.9006" style="stop-color:#292526"/>
						<stop  offset="1" style="stop-color:#231F20"/>
					</radialGradient>
					<rect x="136.2" y="34.4" clip-path="url(#SVGID_23_)" fill="url(#SVGID_24_)" width="56" height="56"/>
				</g>
				<g clip-path="url(#SVGID_4_)">
					<defs>
						<rect id="SVGID_25_" x="0" y="0" width="301.6" height="190.6"/>
					</defs>
					<clipPath id="SVGID_26_">
						<use xlink:href="#SVGID_25_"  overflow="visible"/>
					</clipPath>
					
						<circle clip-path="url(#SVGID_26_)" fill="none" stroke="#FFFFFF" stroke-width="3" stroke-miterlimit="10" cx="164.2" cy="62.4" r="28"/>
				</g>
				<g clip-path="url(#SVGID_4_)">
					<defs>
						<path id="SVGID_27_" d="M49.9,62.4c0,3,2.5,5.5,5.5,5.5c3,0,5.5-2.5,5.5-5.5c0-3-2.5-5.5-5.5-5.5
							C52.4,56.9,49.9,59.4,49.9,62.4"/>
					</defs>
					<clipPath id="SVGID_28_">
						<use xlink:href="#SVGID_27_"  overflow="visible"/>
					</clipPath>
					
						<radialGradient id="SVGID_29_" cx="-165.8319" cy="-313.1779" r="0.663" gradientTransform="matrix(8.2645 0 0 -8.2645 1425.9022 -2525.8472)" gradientUnits="userSpaceOnUse">
						<stop  offset="0" style="stop-color:#FFFFFF"/>
						<stop  offset="0.6786" style="stop-color:#FFFFFF"/>
						<stop  offset="0.7866" style="stop-color:#939191"/>
						<stop  offset="0.8946" style="stop-color:#231F20"/>
						<stop  offset="1" style="stop-color:#231F20"/>
					</radialGradient>
					<rect x="49.9" y="56.9" clip-path="url(#SVGID_28_)" fill="url(#SVGID_29_)" width="11" height="11"/>
				</g>
				<g clip-path="url(#SVGID_4_)">
					<defs>
						<path id="SVGID_30_" d="M158.7,62.4c0,3,2.5,5.5,5.5,5.5c3,0,5.5-2.5,5.5-5.5c0-3-2.5-5.5-5.5-5.5
							C161.2,56.9,158.7,59.4,158.7,62.4"/>
					</defs>
					<clipPath id="SVGID_31_">
						<use xlink:href="#SVGID_30_"  overflow="visible"/>
					</clipPath>
					
						<radialGradient id="SVGID_32_" cx="-172.5241" cy="-313.1779" r="0.663" gradientTransform="matrix(8.2645 0 0 -8.2645 1590.0179 -2525.8472)" gradientUnits="userSpaceOnUse">
						<stop  offset="0" style="stop-color:#FFFFFF"/>
						<stop  offset="0.6786" style="stop-color:#FFFFFF"/>
						<stop  offset="0.7866" style="stop-color:#939191"/>
						<stop  offset="0.8946" style="stop-color:#231F20"/>
						<stop  offset="1" style="stop-color:#231F20"/>
					</radialGradient>
					<rect x="158.7" y="56.9" clip-path="url(#SVGID_31_)" fill="url(#SVGID_32_)" width="11" height="11"/>
				</g>
				<rect x="94.3" y="34.4" clip-path="url(#SVGID_4_)" fill="#F4F4F8" width="31.7" height="56"/>
				
					<rect x="94.3" y="34.4" clip-path="url(#SVGID_4_)" fill="none" stroke="#FFFFFF" stroke-linejoin="round" stroke-miterlimit="10" width="31.7" height="56"/>
				<rect x="98.8" y="41.1" clip-path="url(#SVGID_4_)" fill="#E6E6EA" width="22.8" height="13.7"/>
				
					<rect x="98.8" y="41.1" clip-path="url(#SVGID_4_)" fill="none" stroke="#6D6875" stroke-linejoin="round" stroke-miterlimit="10" width="22.8" height="13.7"/>
			</g>
		</g>
	</g>
</g>
<g id="towel">
	<g>
		<g id="towel_2_">
			<path fill="#FED766" d="M126.4,139.9H209c3.6,0,6.4-2.9,6.4-6.4c0-3.6-2.9-6.4-6.4-6.4h-82.6c-2.3,0-4.2-1.9-4.2-4.2
				c0-2.3,1.9-4.2,4.2-4.2l82.8,0.1c8,0,14.7,6.7,14.7,14.7c0,8.1-6.6,14.7-14.7,14.7h-87.7c-3.6,0-6.4,2.9-6.4,6.4
				c0,3.6,2.9,6.4,6.4,6.4h83.3h4.4c8.3,0,15.7-3.7,20.7-9.4c0.3-0.3,0.6-0.5,0.8-0.8l10.9-12.2l3.7-4.1l5.4-6l17.1-19.1
				c5.3-5.9,6.5-12.8,6.5-17.6c0-7.3-2.9-14.3-8.2-19.5c-5.2-5.2-12.2-8-19.4-8L176,64.2c-4.7,0-11.6,2.1-16,6.1l-44.1,38.9
				c-0.4,0.3-0.7,0.7-1,1.1c-3.5,3.1-5.6,7.6-5.6,12.7C109.4,132.3,117,139.9,126.4,139.9z"/>
		</g>
		<g id="lines_1_">
		</g>
	</g>
</g>
<g id="bottle">
	<g>
		<g>
			<defs>
				<rect id="SVGID_33_" x="181.4" y="0" width="45.4" height="86.8"/>
			</defs>
			<clipPath id="SVGID_34_">
				<use xlink:href="#SVGID_33_"  overflow="visible"/>
			</clipPath>
			<g clip-path="url(#SVGID_34_)">
				<defs>
					<rect id="SVGID_35_" x="181.4" y="0" width="45.4" height="86.8"/>
				</defs>
				<clipPath id="SVGID_36_">
					<use xlink:href="#SVGID_35_"  overflow="visible"/>
				</clipPath>
				<path clip-path="url(#SVGID_36_)" fill="#009FB7" d="M218.2,86.8H190c-4.8,0-8.6-3.9-8.6-8.6V24.4c0-4.8,3.9-8.6,8.6-8.6h28.2
					c4.8,0,8.6,3.9,8.6,8.6v53.9C226.9,83,223,86.8,218.2,86.8"/>
			</g>
			<rect x="181.4" y="42" clip-path="url(#SVGID_34_)" fill="#FF006E" width="45.4" height="4.5"/>
			<rect x="181.4" y="51.3" clip-path="url(#SVGID_34_)" fill="#FF006E" width="45.4" height="4.5"/>
			<g clip-path="url(#SVGID_34_)">
				<defs>
					<rect id="SVGID_37_" x="181.4" y="0" width="45.4" height="86.8"/>
				</defs>
				<clipPath id="SVGID_38_">
					<use xlink:href="#SVGID_37_"  overflow="visible"/>
				</clipPath>
				<path clip-path="url(#SVGID_38_)" fill="#FED766" d="M204.1,8.4L204.1,8.4c-0.9,0-1.6-0.7-1.6-1.6V1.6c0-0.9,0.7-1.6,1.6-1.6
					s1.6,0.7,1.6,1.6v5.1C205.8,7.7,205.1,8.4,204.1,8.4"/>
				<path clip-path="url(#SVGID_38_)" fill="#009FB7" d="M204.1,16.9L204.1,16.9c-2.2,0-4-1.8-4-4V6.2c0-2.2,1.8-4,4-4
					c2.2,0,4,1.8,4,4v6.6C208.2,15,206.4,16.9,204.1,16.9"/>
				<path clip-path="url(#SVGID_38_)" fill="#FED766" d="M215,15.8h-20.9c-2.3,0-4.2-1.9-4.2-4.2c0-2.3,1.9-4.2,4.2-4.2H215
					c2.3,0,4.2,1.9,4.2,4.2C219.2,13.9,217.3,15.8,215,15.8"/>
			</g>
		</g>
	</g>
</g>
</svg>
