<?xml version="1.0" encoding="utf-8"?>
<!-- Generator: Adobe Illustrator 18.1.0, SVG Export Plug-In . SVG Version: 6.00 Build 0)  -->
<svg version="1.1" xmlns="http://www.w3.org/2000/svg" xmlns:xlink="http://www.w3.org/1999/xlink" x="0px" y="0px"
	 viewBox="0 0 330.7 201.9" enable-background="new 0 0 330.7 201.9" xml:space="preserve">
<g id="boombox">
	<g>
		<g>
			<defs>
				<rect id="SVGID_1_" x="0" y="0" width="319.5" height="158.6"/>
			</defs>
			<clipPath id="SVGID_2_">
				<use xlink:href="#SVGID_1_"  overflow="visible"/>
			</clipPath>
			<g clip-path="url(#SVGID_2_)">
				<defs>
					<rect id="SVGID_3_" x="0" y="0" width="319.5" height="158.6"/>
				</defs>
				<clipPath id="SVGID_4_">
					<use xlink:href="#SVGID_3_"  overflow="visible"/>
				</clipPath>
				
					<rect x="49.3" y="5.3" clip-path="url(#SVGID_4_)" fill="none" stroke="#E6E6EA" stroke-width="11" stroke-linejoin="round" stroke-miterlimit="10" width="220.9" height="26.9"/>
			</g>
			<rect x="2.4" y="24.8" clip-path="url(#SVGID_2_)" fill="#E6E6EA" width="314.7" height="131.4"/>
			<g clip-path="url(#SVGID_2_)">
				<defs>
					<rect id="SVGID_5_" x="0" y="0" width="319.5" height="158.6"/>
				</defs>
				<clipPath id="SVGID_6_">
					<use xlink:href="#SVGID_5_"  overflow="visible"/>
				</clipPath>
				
					<rect x="2.4" y="24.8" clip-path="url(#SVGID_6_)" fill="none" stroke="#E6E6EA" stroke-width="5" stroke-linejoin="round" stroke-miterlimit="10" width="314.7" height="131.4"/>
			</g>
			<g clip-path="url(#SVGID_2_)">
				<defs>
					<rect id="SVGID_7_" x="0" y="0" width="319.5" height="158.6"/>
				</defs>
				<clipPath id="SVGID_8_">
					<use xlink:href="#SVGID_7_"  overflow="visible"/>
				</clipPath>
				
					<circle clip-path="url(#SVGID_8_)" fill="none" stroke="#F4F4F8" stroke-width="11" stroke-miterlimit="10" cx="80.3" cy="90.5" r="44.5"/>
				
					<circle clip-path="url(#SVGID_8_)" fill="none" stroke="#F4F4F8" stroke-width="11" stroke-miterlimit="10" cx="238.1" cy="90.5" r="44.5"/>
			</g>
			<g clip-path="url(#SVGID_2_)">
				<defs>
					<path id="SVGID_9_" d="M39.8,90.5c0,22.4,18.2,40.6,40.6,40.6c22.4,0,40.6-18.2,40.6-40.6c0-22.4-18.2-40.6-40.6-40.6
						C57.9,49.9,39.8,68.1,39.8,90.5"/>
				</defs>
				<clipPath id="SVGID_10_">
					<use xlink:href="#SVGID_9_"  overflow="visible"/>
				</clipPath>
				
					<radialGradient id="SVGID_11_" cx="-171.7051" cy="-277.9257" r="0.9615" gradientTransform="matrix(42.2025 0 0 -42.2025 7326.7075 -11638.6631)" gradientUnits="userSpaceOnUse">
					<stop  offset="0" style="stop-color:#FFFFFF"/>
					<stop  offset="4.659218e-002" style="stop-color:#EFEFEF"/>
					<stop  offset="0.2429" style="stop-color:#B2B1B1"/>
					<stop  offset="0.4309" style="stop-color:#7F7D7D"/>
					<stop  offset="0.6055" style="stop-color:#575455"/>
					<stop  offset="0.7638" style="stop-color:#3B3738"/>
					<stop  offset="0.9006" style="stop-color:#292526"/>
					<stop  offset="1" style="stop-color:#231F20"/>
				</radialGradient>
				<rect x="39.8" y="49.9" clip-path="url(#SVGID_10_)" fill="url(#SVGID_11_)" width="81.2" height="81.2"/>
			</g>
			<g clip-path="url(#SVGID_2_)">
				<defs>
					<rect id="SVGID_12_" x="0" y="0" width="319.5" height="158.6"/>
				</defs>
				<clipPath id="SVGID_13_">
					<use xlink:href="#SVGID_12_"  overflow="visible"/>
				</clipPath>
				
					<circle clip-path="url(#SVGID_13_)" fill="none" stroke="#FFFFFF" stroke-width="3" stroke-miterlimit="10" cx="80.3" cy="90.5" r="40.6"/>
			</g>
			<g clip-path="url(#SVGID_2_)">
				<defs>
					<path id="SVGID_14_" d="M197.5,90.5c0,22.4,18.2,40.6,40.6,40.6c22.4,0,40.6-18.2,40.6-40.6c0-22.4-18.2-40.6-40.6-40.6
						C215.7,49.9,197.5,68.1,197.5,90.5"/>
				</defs>
				<clipPath id="SVGID_15_">
					<use xlink:href="#SVGID_14_"  overflow="visible"/>
				</clipPath>
				
					<radialGradient id="SVGID_16_" cx="-171.8549" cy="-277.9257" r="0.9615" gradientTransform="matrix(42.2025 0 0 -42.2025 7490.8232 -11638.6631)" gradientUnits="userSpaceOnUse">
					<stop  offset="0" style="stop-color:#FFFFFF"/>
					<stop  offset="4.659218e-002" style="stop-color:#EFEFEF"/>
					<stop  offset="0.2429" style="stop-color:#B2B1B1"/>
					<stop  offset="0.4309" style="stop-color:#7F7D7D"/>
					<stop  offset="0.6055" style="stop-color:#575455"/>
					<stop  offset="0.7638" style="stop-color:#3B3738"/>
					<stop  offset="0.9006" style="stop-color:#292526"/>
					<stop  offset="1" style="stop-color:#231F20"/>
				</radialGradient>
				<rect x="197.5" y="49.9" clip-path="url(#SVGID_15_)" fill="url(#SVGID_16_)" width="81.2" height="81.2"/>
			</g>
			<g clip-path="url(#SVGID_2_)">
				<defs>
					<rect id="SVGID_17_" x="0" y="0" width="319.5" height="158.6"/>
				</defs>
				<clipPath id="SVGID_18_">
					<use xlink:href="#SVGID_17_"  overflow="visible"/>
				</clipPath>
				
					<circle clip-path="url(#SVGID_18_)" fill="none" stroke="#FFFFFF" stroke-width="3" stroke-miterlimit="10" cx="238.1" cy="90.5" r="40.6"/>
			</g>
			<g clip-path="url(#SVGID_2_)">
				<defs>
					<path id="SVGID_19_" d="M72.4,90.5c0,4.4,3.6,7.9,7.9,7.9c4.4,0,7.9-3.6,7.9-7.9c0-4.4-3.6-7.9-7.9-7.9
						C75.9,82.5,72.4,86.1,72.4,90.5"/>
				</defs>
				<clipPath id="SVGID_20_">
					<use xlink:href="#SVGID_19_"  overflow="visible"/>
				</clipPath>
				
					<radialGradient id="SVGID_21_" cx="-154.9126" cy="-319.6787" r="0.9615" gradientTransform="matrix(8.2645 0 0 -8.2645 1360.5967 -2551.481)" gradientUnits="userSpaceOnUse">
					<stop  offset="0" style="stop-color:#FFFFFF"/>
					<stop  offset="0.6786" style="stop-color:#FFFFFF"/>
					<stop  offset="0.7866" style="stop-color:#939191"/>
					<stop  offset="0.8946" style="stop-color:#231F20"/>
					<stop  offset="1" style="stop-color:#231F20"/>
				</radialGradient>
				<rect x="72.4" y="82.5" clip-path="url(#SVGID_20_)" fill="url(#SVGID_21_)" width="15.9" height="15.9"/>
			</g>
			<g clip-path="url(#SVGID_2_)">
				<defs>
					<path id="SVGID_22_" d="M230.2,90.5c0,4.4,3.6,7.9,7.9,7.9c4.4,0,7.9-3.6,7.9-7.9c0-4.4-3.6-7.9-7.9-7.9
						C233.7,82.5,230.2,86.1,230.2,90.5"/>
				</defs>
				<clipPath id="SVGID_23_">
					<use xlink:href="#SVGID_22_"  overflow="visible"/>
				</clipPath>
				
					<radialGradient id="SVGID_24_" cx="-155.6776" cy="-319.6787" r="0.9615" gradientTransform="matrix(8.2645 0 0 -8.2645 1524.7124 -2551.481)" gradientUnits="userSpaceOnUse">
					<stop  offset="0" style="stop-color:#FFFFFF"/>
					<stop  offset="0.6786" style="stop-color:#FFFFFF"/>
					<stop  offset="0.7866" style="stop-color:#939191"/>
					<stop  offset="0.8946" style="stop-color:#231F20"/>
					<stop  offset="1" style="stop-color:#231F20"/>
				</radialGradient>
				<rect x="230.2" y="82.5" clip-path="url(#SVGID_23_)" fill="url(#SVGID_24_)" width="15.9" height="15.9"/>
			</g>
			<rect x="136.8" y="49.9" clip-path="url(#SVGID_2_)" fill="#F4F4F8" width="46" height="81.2"/>
			
				<rect x="136.8" y="49.9" clip-path="url(#SVGID_2_)" fill="none" stroke="#FFFFFF" stroke-linejoin="round" stroke-miterlimit="10" width="46" height="81.2"/>
			<rect x="143.2" y="59.6" clip-path="url(#SVGID_2_)" fill="#E6E6EA" width="33.1" height="19.9"/>
			
				<rect x="143.2" y="59.6" clip-path="url(#SVGID_2_)" fill="none" stroke="#6D6875" stroke-linejoin="round" stroke-miterlimit="10" width="33.1" height="19.9"/>
		</g>
	</g>
</g>
<g id="towel">
	<g>
		<g id="towel_2_">
			<path fill="#FED766" d="M182.7,180.8h82.6c3.6,0,6.4-2.9,6.4-6.4s-2.9-6.4-6.4-6.4h-82.6c-2.3,0-4.2-1.9-4.2-4.2
				c0-2.3,1.9-4.2,4.2-4.2l82.8,0.1c8,0,14.7,6.7,14.7,14.7c0,8.1-6.6,14.7-14.7,14.7h-87.7c-3.6,0-6.4,2.9-6.4,6.4s2.9,6.4,6.4,6.4
				h83.3h4.4c8.3,0,15.7-3.7,20.7-9.4c0.3-0.3,0.6-0.5,0.8-0.8l10.9-12.2l3.7-4.1l5.4-6l17.1-19.1c5.3-5.9,6.5-12.8,6.5-17.6
				c0-7.3-2.9-14.3-8.2-19.5c-5.2-5.2-12.2-8-19.4-8l-70.8-0.1c-4.7,0-11.6,2.1-16,6.1l-44.1,38.9c-0.4,0.3-0.7,0.7-1,1.1
				c-3.5,3.1-5.6,7.6-5.6,12.7C165.7,173.2,173.3,180.8,182.7,180.8z"/>
		</g>
		<g id="lines_1_">
		</g>
	</g>
</g>
<g id="bottle">
	<g>
		<g>
			<defs>
				<rect id="SVGID_25_" x="237.7" y="40.9" width="45.4" height="86.8"/>
			</defs>
			<clipPath id="SVGID_26_">
				<use xlink:href="#SVGID_25_"  overflow="visible"/>
			</clipPath>
			<g clip-path="url(#SVGID_26_)">
				<defs>
					<rect id="SVGID_27_" x="237.7" y="40.9" width="45.4" height="86.8"/>
				</defs>
				<clipPath id="SVGID_28_">
					<use xlink:href="#SVGID_27_"  overflow="visible"/>
				</clipPath>
				<path clip-path="url(#SVGID_28_)" fill="#009FB7" d="M274.6,127.7h-28.2c-4.8,0-8.6-3.9-8.6-8.6V65.3c0-4.8,3.9-8.6,8.6-8.6
					h28.2c4.8,0,8.6,3.9,8.6,8.6v53.9C283.2,123.9,279.3,127.7,274.6,127.7"/>
			</g>
			<rect x="237.7" y="82.9" clip-path="url(#SVGID_26_)" fill="#FF006E" width="45.4" height="4.5"/>
			<rect x="237.7" y="92.2" clip-path="url(#SVGID_26_)" fill="#FF006E" width="45.4" height="4.5"/>
			<g clip-path="url(#SVGID_26_)">
				<defs>
					<rect id="SVGID_29_" x="237.7" y="40.9" width="45.4" height="86.8"/>
				</defs>
				<clipPath id="SVGID_30_">
					<use xlink:href="#SVGID_29_"  overflow="visible"/>
				</clipPath>
				<path clip-path="url(#SVGID_30_)" fill="#FED766" d="M260.5,49.3L260.5,49.3c-0.9,0-1.6-0.7-1.6-1.6v-5.1c0-0.9,0.7-1.6,1.6-1.6
					s1.6,0.7,1.6,1.6v5.1C262.1,48.6,261.4,49.3,260.5,49.3"/>
				<path clip-path="url(#SVGID_30_)" fill="#009FB7" d="M260.5,57.8L260.5,57.8c-2.2,0-4-1.8-4-4v-6.6c0-2.2,1.8-4,4-4
					c2.2,0,4,1.8,4,4v6.6C264.5,55.9,262.7,57.8,260.5,57.8"/>
				<path clip-path="url(#SVGID_30_)" fill="#FED766" d="M271.3,56.7h-20.9c-2.3,0-4.2-1.9-4.2-4.2c0-2.3,1.9-4.2,4.2-4.2h20.9
					c2.3,0,4.2,1.9,4.2,4.2C275.5,54.8,273.6,56.7,271.3,56.7"/>
			</g>
		</g>
	</g>
</g>
</svg>
