<?xml version="1.0" encoding="utf-8"?>
<!-- Generator: Adobe Illustrator 18.1.0, SVG Export Plug-In . SVG Version: 6.00 Build 0)  -->
<svg version="1.1" xmlns="http://www.w3.org/2000/svg" xmlns:xlink="http://www.w3.org/1999/xlink" x="0px" y="0px"
	 viewBox="0 0 792 612" enable-background="new 0 0 792 612" xml:space="preserve">
<g id="Handle">
	<g>
		<g>
			<rect x="395.6" y="338.2" fill="#808285" width="229.8" height="28"/>
			<rect x="395.1" y="337.7" fill="#808285" width="229.8" height="28"/>
			<rect x="394.6" y="337.2" fill="#808285" width="229.8" height="28"/>
			<rect x="394.1" y="336.7" fill="#808285" width="229.8" height="28"/>
			<rect x="393.6" y="336.2" fill="#808285" width="229.8" height="28"/>
			<rect x="393.1" y="335.7" fill="#808285" width="229.8" height="28"/>
			<rect x="392.6" y="335.2" fill="#808285" width="229.8" height="28"/>
			<rect x="392.1" y="334.7" fill="#808285" width="229.8" height="28"/>
			<rect x="391.6" y="334.2" fill="#808285" width="229.8" height="28"/>
			<rect x="391.1" y="333.7" fill="#808285" width="229.8" height="28"/>
			<rect x="390.6" y="333.2" fill="#808285" width="229.8" height="28"/>
			<rect x="390.1" y="332.7" fill="#808285" width="229.8" height="28"/>
			<rect x="389.6" y="332.2" fill="#808285" width="229.8" height="28"/>
			<rect x="389.1" y="331.7" fill="#808285" width="229.8" height="28"/>
			<rect x="388.6" y="331.2" fill="#808285" width="229.8" height="28"/>
			<rect x="388.1" y="330.7" fill="#808285" width="229.8" height="28"/>
			<rect x="387.6" y="330.2" fill="#808285" width="229.8" height="28"/>
			<rect x="387.1" y="329.7" fill="#808285" width="229.8" height="28"/>
			<rect x="386.6" y="329.2" fill="#808285" width="229.8" height="28"/>
			<rect x="386.1" y="328.7" fill="#808285" width="229.8" height="28"/>
			<rect x="385.6" y="328.2" fill="#808285" width="229.8" height="28"/>
			<rect x="385.1" y="327.7" fill="#808285" width="229.8" height="28"/>
			<rect x="384.6" y="327.2" fill="#808285" width="229.8" height="28"/>
			<rect x="384.1" y="326.7" fill="#808285" width="229.8" height="28"/>
			<rect x="383.6" y="326.2" fill="#808285" width="229.8" height="28"/>
			<rect x="383.1" y="325.7" fill="#808285" width="229.8" height="28"/>
			<rect x="382.6" y="325.2" fill="#808285" width="229.8" height="28"/>
			<rect x="382.1" y="324.7" fill="#808285" width="229.8" height="28"/>
			<rect x="381.6" y="324.2" fill="#808285" width="229.8" height="28"/>
			<rect x="381.1" y="323.7" fill="#808285" width="229.8" height="28"/>
			<rect x="380.6" y="323.2" fill="#808285" width="229.8" height="28"/>
			<rect x="380.1" y="322.7" fill="#808285" width="229.8" height="28"/>
			<rect x="379.6" y="322.2" fill="#808285" width="229.8" height="28"/>
			<rect x="379.1" y="321.7" fill="#808285" width="229.8" height="28"/>
			<rect x="378.6" y="321.2" fill="#808285" width="229.8" height="28"/>
			<rect x="378.1" y="320.7" fill="#808285" width="229.8" height="28"/>
			<rect x="377.6" y="320.2" fill="#808285" width="229.8" height="28"/>
			<rect x="377.1" y="319.7" fill="#808285" width="229.8" height="28"/>
			<rect x="376.6" y="319.2" fill="#808285" width="229.8" height="28"/>
			<rect x="376.1" y="318.7" fill="#808285" width="229.8" height="28"/>
			<rect x="375.6" y="318.2" fill="#808285" width="229.8" height="28"/>
			<rect x="375.1" y="317.7" fill="#808285" width="229.8" height="28"/>
			<rect x="374.6" y="317.2" fill="#808285" width="229.8" height="28"/>
			<rect x="374.1" y="316.7" fill="#808285" width="229.8" height="28"/>
			<rect x="373.6" y="316.2" fill="#808285" width="229.8" height="28"/>
			<rect x="373.1" y="315.7" fill="#808285" width="229.8" height="28"/>
			<rect x="372.6" y="315.2" fill="#808285" width="229.8" height="28"/>
			<rect x="372.1" y="314.7" fill="#808285" width="229.8" height="28"/>
			<rect x="371.6" y="314.2" fill="#808285" width="229.8" height="28"/>
			<rect x="371.1" y="313.7" fill="#808285" width="229.8" height="28"/>
			<rect x="370.6" y="313.2" fill="#808285" width="229.8" height="28"/>
			<rect x="370.1" y="312.7" fill="#808285" width="229.8" height="28"/>
			<rect x="369.6" y="312.2" fill="#808285" width="229.8" height="28"/>
			<rect x="369.1" y="311.7" fill="#808285" width="229.8" height="28"/>
			<rect x="368.6" y="311.2" fill="#808285" width="229.8" height="28"/>
			<rect x="368.1" y="310.7" fill="#808285" width="229.8" height="28"/>
			<rect x="367.6" y="310.2" fill="#808285" width="229.8" height="28"/>
			<rect x="367.1" y="309.7" fill="#808285" width="229.8" height="28"/>
			<rect x="366.6" y="309.2" fill="#808285" width="229.8" height="28"/>
			<rect x="366.1" y="308.7" fill="#808285" width="229.8" height="28"/>
			<rect x="365.6" y="308.2" fill="#808285" width="229.8" height="28"/>
			<rect x="365.1" y="307.7" fill="#808285" width="229.8" height="28"/>
			<rect x="364.6" y="307.2" fill="#808285" width="229.8" height="28"/>
			<rect x="364.1" y="306.7" fill="#808285" width="229.8" height="28"/>
			<rect x="363.6" y="306.2" fill="#808285" width="229.8" height="28"/>
			<rect x="363.1" y="305.7" fill="#808285" width="229.8" height="28"/>
			<rect x="362.6" y="305.2" fill="#808285" width="229.8" height="28"/>
			<rect x="362.1" y="304.7" fill="#808285" width="229.8" height="28"/>
			<rect x="361.6" y="304.2" fill="#808285" width="229.8" height="28"/>
			<rect x="361.1" y="303.7" fill="#808285" width="229.8" height="28"/>
			<rect x="360.6" y="303.2" fill="#808285" width="229.8" height="28"/>
			<rect x="360.1" y="302.7" fill="#808285" width="229.8" height="28"/>
			<rect x="359.6" y="302.2" fill="#808285" width="229.8" height="28"/>
			<rect x="359.1" y="301.7" fill="#808285" width="229.8" height="28"/>
			<rect x="358.6" y="301.2" fill="#808285" width="229.8" height="28"/>
			<rect x="358.1" y="300.7" fill="#808285" width="229.8" height="28"/>
			<rect x="357.6" y="300.2" fill="#808285" width="229.8" height="28"/>
			<rect x="357.1" y="299.7" fill="#808285" width="229.8" height="28"/>
			<rect x="356.6" y="299.2" fill="#808285" width="229.8" height="28"/>
			<rect x="356.1" y="298.7" fill="#808285" width="229.8" height="28"/>
			<rect x="355.6" y="298.2" fill="#808285" width="229.8" height="28"/>
			<rect x="355.1" y="297.7" fill="#808285" width="229.8" height="28"/>
			<rect x="354.6" y="297.2" fill="#808285" width="229.8" height="28"/>
			<rect x="354.1" y="296.7" fill="#808285" width="229.8" height="28"/>
			<rect x="353.6" y="296.2" fill="#808285" width="229.8" height="28"/>
			<rect x="353.1" y="295.7" fill="#808285" width="229.8" height="28"/>
			<rect x="352.6" y="295.2" fill="#808285" width="229.8" height="28"/>
			<rect x="352.1" y="294.7" fill="#808285" width="229.8" height="28"/>
			<rect x="351.6" y="294.2" fill="#808285" width="229.8" height="28"/>
			<rect x="351.1" y="293.7" fill="#808285" width="229.8" height="28"/>
			<rect x="350.6" y="293.2" fill="#808285" width="229.8" height="28"/>
			<rect x="350.1" y="292.7" fill="#808285" width="229.8" height="28"/>
			<rect x="349.6" y="292.2" fill="#808285" width="229.8" height="28"/>
			<rect x="349.1" y="291.7" fill="#808285" width="229.8" height="28"/>
			<rect x="348.6" y="291.2" fill="#808285" width="229.8" height="28"/>
			<rect x="348.1" y="290.7" fill="#808285" width="229.8" height="28"/>
			<rect x="347.6" y="290.2" fill="#808285" width="229.8" height="28"/>
			<rect x="347.1" y="289.7" fill="#808285" width="229.8" height="28"/>
			<rect x="346.6" y="289.2" fill="#808285" width="229.8" height="28"/>
			<rect x="346.1" y="288.7" fill="#808285" width="229.8" height="28"/>
			<rect x="345.6" y="288.2" fill="#808285" width="229.8" height="28"/>
			<rect x="345.1" y="287.7" fill="#808285" width="229.8" height="28"/>
			<rect x="344.6" y="287.2" fill="#808285" width="229.8" height="28"/>
			<rect x="344.1" y="286.7" fill="#808285" width="229.8" height="28"/>
			<rect x="343.6" y="286.2" fill="#808285" width="229.8" height="28"/>
			<rect x="343.1" y="285.7" fill="#808285" width="229.8" height="28"/>
			<rect x="342.6" y="285.2" fill="#808285" width="229.8" height="28"/>
			<rect x="342.1" y="284.7" fill="#808285" width="229.8" height="28"/>
			<rect x="341.6" y="284.2" fill="#808285" width="229.8" height="28"/>
			<rect x="341.1" y="283.7" fill="#808285" width="229.8" height="28"/>
			<rect x="340.6" y="283.2" fill="#808285" width="229.8" height="28"/>
			<rect x="340.1" y="282.7" fill="#808285" width="229.8" height="28"/>
			<rect x="339.6" y="282.2" fill="#808285" width="229.8" height="28"/>
			<rect x="339.1" y="281.7" fill="#808285" width="229.8" height="28"/>
			<rect x="338.6" y="281.2" fill="#808285" width="229.8" height="28"/>
			<rect x="338.1" y="280.7" fill="#808285" width="229.8" height="28"/>
			<rect x="337.6" y="280.2" fill="#808285" width="229.8" height="28"/>
			<rect x="337.1" y="279.7" fill="#808285" width="229.8" height="28"/>
			<rect x="336.6" y="279.2" fill="#808285" width="229.8" height="28"/>
			<rect x="336.1" y="278.7" fill="#808285" width="229.8" height="28"/>
			<rect x="335.6" y="278.2" fill="#808285" width="229.8" height="28"/>
			<rect x="335.1" y="277.7" fill="#808285" width="229.8" height="28"/>
			<rect x="334.6" y="277.2" fill="#808285" width="229.8" height="28"/>
			<rect x="334.1" y="276.7" fill="#808285" width="229.8" height="28"/>
			<rect x="333.6" y="276.2" fill="#808285" width="229.8" height="28"/>
			<rect x="333.1" y="275.7" fill="#808285" width="229.8" height="28"/>
			<rect x="332.6" y="275.2" fill="#808285" width="229.8" height="28"/>
			<rect x="332.1" y="274.7" fill="#808285" width="229.8" height="28"/>
			<rect x="331.6" y="274.2" fill="#808285" width="229.8" height="28"/>
			<rect x="331.1" y="273.7" fill="#808285" width="229.8" height="28"/>
			<rect x="330.6" y="273.2" fill="#808285" width="229.8" height="28"/>
			<rect x="330.1" y="272.7" fill="#808285" width="229.8" height="28"/>
			<rect x="329.6" y="272.2" fill="#808285" width="229.8" height="28"/>
			<rect x="329.1" y="271.7" fill="#808285" width="229.8" height="28"/>
			<rect x="328.6" y="271.2" fill="#808285" width="229.8" height="28"/>
			<rect x="328.1" y="270.7" fill="#808285" width="229.8" height="28"/>
			<rect x="327.6" y="270.2" fill="#808285" width="229.8" height="28"/>
			<rect x="327.1" y="269.7" fill="#808285" width="229.8" height="28"/>
			<rect x="326.6" y="269.2" fill="#808285" width="229.8" height="28"/>
			<rect x="326.1" y="268.7" fill="#808285" width="229.8" height="28"/>
			<rect x="325.6" y="268.2" fill="#808285" width="229.8" height="28"/>
			<rect x="325.1" y="267.7" fill="#808285" width="229.8" height="28"/>
			<rect x="324.6" y="267.2" fill="#808285" width="229.8" height="28"/>
			<rect x="324.1" y="266.7" fill="#808285" width="229.8" height="28"/>
			<rect x="323.6" y="266.2" fill="#808285" width="229.8" height="28"/>
			<rect x="323.1" y="265.7" fill="#808285" width="229.8" height="28"/>
			<rect x="322.6" y="265.2" fill="#808285" width="229.8" height="28"/>
			<rect x="322.1" y="264.7" fill="#808285" width="229.8" height="28"/>
			<rect x="321.6" y="264.2" fill="#808285" width="229.8" height="28"/>
			<rect x="321.1" y="263.7" fill="#808285" width="229.8" height="28"/>
			<rect x="320.6" y="263.2" fill="#808285" width="229.8" height="28"/>
			<rect x="320.1" y="262.7" fill="#808285" width="229.8" height="28"/>
			<rect x="319.6" y="262.2" fill="#808285" width="229.8" height="28"/>
			<rect x="319.1" y="261.7" fill="#808285" width="229.8" height="28"/>
			<rect x="318.6" y="261.2" fill="#808285" width="229.8" height="28"/>
			<rect x="318.1" y="260.7" fill="#808285" width="229.8" height="28"/>
			<rect x="317.6" y="260.2" fill="#808285" width="229.8" height="28"/>
			<rect x="317.1" y="259.7" fill="#808285" width="229.8" height="28"/>
			<rect x="316.6" y="259.2" fill="#808285" width="229.8" height="28"/>
			<rect x="316.1" y="258.7" fill="#808285" width="229.8" height="28"/>
			<rect x="315.6" y="258.2" fill="#808285" width="229.8" height="28"/>
			<rect x="315.1" y="257.7" fill="#808285" width="229.8" height="28"/>
			<rect x="314.6" y="257.2" fill="#808285" width="229.8" height="28"/>
			<rect x="314.1" y="256.7" fill="#808285" width="229.8" height="28"/>
			<rect x="313.6" y="256.2" fill="#808285" width="229.8" height="28"/>
			<rect x="313.1" y="255.7" fill="#808285" width="229.8" height="28"/>
			<rect x="312.6" y="255.2" fill="#808285" width="229.8" height="28"/>
			<rect x="312.1" y="254.7" fill="#808285" width="229.8" height="28"/>
			<rect x="311.6" y="254.2" fill="#808285" width="229.8" height="28"/>
			<rect x="311.1" y="253.7" fill="#808285" width="229.8" height="28"/>
			<rect x="310.6" y="253.2" fill="#808285" width="229.8" height="28"/>
			<rect x="310.1" y="252.7" fill="#808285" width="229.8" height="28"/>
			<rect x="309.6" y="252.2" fill="#808285" width="229.8" height="28"/>
			<rect x="309.1" y="251.7" fill="#808285" width="229.8" height="28"/>
			<rect x="308.6" y="251.2" fill="#808285" width="229.8" height="28"/>
			<rect x="308.1" y="250.7" fill="#808285" width="229.8" height="28"/>
			<rect x="307.6" y="250.2" fill="#808285" width="229.8" height="28"/>
			<rect x="307.1" y="249.7" fill="#808285" width="229.8" height="28"/>
			<rect x="306.6" y="249.2" fill="#808285" width="229.8" height="28"/>
			<rect x="306.1" y="248.7" fill="#808285" width="229.8" height="28"/>
			<rect x="305.6" y="248.2" fill="#808285" width="229.8" height="28"/>
			<rect x="305.1" y="247.7" fill="#808285" width="229.8" height="28"/>
			<rect x="304.6" y="247.2" fill="#808285" width="229.8" height="28"/>
			<rect x="304.1" y="246.7" fill="#808285" width="229.8" height="28"/>
			<rect x="303.6" y="246.2" fill="#808285" width="229.8" height="28"/>
			<rect x="303.1" y="245.7" fill="#808285" width="229.8" height="28"/>
			<rect x="302.6" y="245.2" fill="#808285" width="229.8" height="28"/>
			<rect x="302.1" y="244.7" fill="#808285" width="229.8" height="28"/>
			<rect x="301.6" y="244.2" fill="#808285" width="229.8" height="28"/>
			<rect x="301.1" y="243.7" fill="#808285" width="229.8" height="28"/>
			<rect x="300.6" y="243.2" fill="#808285" width="229.8" height="28"/>
			<rect x="300.1" y="242.7" fill="#808285" width="229.8" height="28"/>
			<rect x="299.6" y="242.2" fill="#808285" width="229.8" height="28"/>
			<rect x="299.1" y="241.7" fill="#808285" width="229.8" height="28"/>
			<rect x="298.6" y="241.2" fill="#808285" width="229.8" height="28"/>
			<rect x="298.1" y="240.7" fill="#808285" width="229.8" height="28"/>
			<rect x="297.6" y="240.2" fill="#808285" width="229.8" height="28"/>
			<rect x="297.1" y="239.7" fill="#808285" width="229.8" height="28"/>
			<rect x="296.6" y="239.2" fill="#808285" width="229.8" height="28"/>
			<rect x="296.1" y="238.7" fill="#808285" width="229.8" height="28"/>
			<rect x="295.6" y="238.2" fill="#808285" width="229.8" height="28"/>
			<rect x="295.1" y="237.7" fill="#808285" width="229.8" height="28"/>
			<rect x="294.6" y="237.2" fill="#808285" width="229.8" height="28"/>
			<rect x="294.1" y="236.7" fill="#808285" width="229.8" height="28"/>
			<rect x="293.6" y="236.2" fill="#808285" width="229.8" height="28"/>
			<rect x="293.1" y="235.7" fill="#808285" width="229.8" height="28"/>
			<rect x="292.6" y="235.2" fill="#808285" width="229.8" height="28"/>
			<rect x="292.1" y="234.7" fill="#808285" width="229.8" height="28"/>
			<rect x="291.6" y="234.2" fill="#808285" width="229.8" height="28"/>
			<rect x="291.1" y="233.7" fill="#808285" width="229.8" height="28"/>
			<rect x="290.6" y="233.2" fill="#808285" width="229.8" height="28"/>
			<rect x="290.1" y="232.7" fill="#808285" width="229.8" height="28"/>
			<rect x="289.6" y="232.2" fill="#808285" width="229.8" height="28"/>
			<rect x="289.1" y="231.7" fill="#808285" width="229.8" height="28"/>
			<rect x="288.6" y="231.2" fill="#808285" width="229.8" height="28"/>
			<rect x="288.1" y="230.7" fill="#808285" width="229.8" height="28"/>
			<rect x="287.6" y="230.2" fill="#808285" width="229.8" height="28"/>
			<rect x="287.1" y="229.7" fill="#808285" width="229.8" height="28"/>
			<rect x="286.6" y="229.2" fill="#808285" width="229.8" height="28"/>
			<rect x="286.1" y="228.7" fill="#808285" width="229.8" height="28"/>
			<rect x="285.6" y="228.2" fill="#808285" width="229.8" height="28"/>
			<rect x="285.1" y="227.7" fill="#808285" width="229.8" height="28"/>
			<rect x="284.6" y="227.2" fill="#808285" width="229.8" height="28"/>
			<rect x="284.1" y="226.7" fill="#808285" width="229.8" height="28"/>
			<rect x="283.6" y="226.2" fill="#808285" width="229.8" height="28"/>
			<rect x="283.1" y="225.7" fill="#808285" width="229.8" height="28"/>
			<rect x="282.6" y="225.2" fill="#808285" width="229.8" height="28"/>
			<rect x="282.1" y="224.7" fill="#808285" width="229.8" height="28"/>
			<rect x="281.6" y="224.2" fill="#808285" width="229.8" height="28"/>
			<rect x="281.1" y="223.7" fill="#808285" width="229.8" height="28"/>
			<rect x="280.6" y="223.2" fill="#808285" width="229.8" height="28"/>
			<rect x="280.1" y="222.7" fill="#808285" width="229.8" height="28"/>
			<rect x="279.6" y="222.2" fill="#808285" width="229.8" height="28"/>
			<rect x="279.1" y="221.7" fill="#808285" width="229.8" height="28"/>
			<rect x="278.6" y="221.2" fill="#808285" width="229.8" height="28"/>
			<rect x="278.1" y="220.7" fill="#808285" width="229.8" height="28"/>
			<rect x="277.6" y="220.2" fill="#808285" width="229.8" height="28"/>
			<rect x="277.1" y="219.7" fill="#808285" width="229.8" height="28"/>
			<rect x="276.6" y="219.2" fill="#808285" width="229.8" height="28"/>
			<rect x="276.1" y="218.7" fill="#808285" width="229.8" height="28"/>
			<rect x="275.6" y="218.2" fill="#808285" width="229.8" height="28"/>
			<rect x="275.1" y="217.7" fill="#808285" width="229.8" height="28"/>
			<rect x="274.6" y="217.2" fill="#808285" width="229.8" height="28"/>
			<rect x="274.1" y="216.7" fill="#808285" width="229.8" height="28"/>
			<rect x="273.6" y="216.2" fill="#808285" width="229.8" height="28"/>
			<rect x="273.1" y="215.7" fill="#808285" width="229.8" height="28"/>
			<rect x="272.6" y="215.2" fill="#808285" width="229.8" height="28"/>
			<rect x="272.1" y="214.7" fill="#808285" width="229.8" height="28"/>
			<rect x="271.6" y="214.2" fill="#808285" width="229.8" height="28"/>
			<rect x="271.1" y="213.7" fill="#808285" width="229.8" height="28"/>
			<rect x="270.6" y="213.2" fill="#808285" width="229.8" height="28"/>
		</g>
		
			<rect x="270.6" y="213.2" fill="none" stroke="#E6E6EA" stroke-width="11" stroke-linejoin="round" stroke-miterlimit="10" width="229.8" height="28"/>
	</g>
</g>
<g id="Box">
	<g>
		<g>
			<rect x="346.8" y="358.5" fill="#939598" width="327.3" height="136.7"/>
			<rect x="346.3" y="358" fill="#939598" width="327.3" height="136.7"/>
			<rect x="345.8" y="357.5" fill="#939598" width="327.3" height="136.7"/>
			<rect x="345.3" y="357" fill="#939598" width="327.3" height="136.7"/>
			<rect x="344.8" y="356.5" fill="#939598" width="327.3" height="136.7"/>
			<rect x="344.3" y="356" fill="#939598" width="327.3" height="136.7"/>
			<rect x="343.8" y="355.5" fill="#939598" width="327.3" height="136.7"/>
			<rect x="343.3" y="355" fill="#939598" width="327.3" height="136.7"/>
			<rect x="342.8" y="354.5" fill="#939598" width="327.3" height="136.7"/>
			<rect x="342.3" y="354" fill="#939598" width="327.3" height="136.7"/>
			<rect x="341.8" y="353.5" fill="#939598" width="327.3" height="136.7"/>
			<rect x="341.3" y="353" fill="#939598" width="327.3" height="136.7"/>
			<rect x="340.8" y="352.5" fill="#939598" width="327.3" height="136.7"/>
			<rect x="340.3" y="352" fill="#939598" width="327.3" height="136.7"/>
			<rect x="339.8" y="351.5" fill="#939598" width="327.3" height="136.7"/>
			<rect x="339.3" y="351" fill="#939598" width="327.3" height="136.7"/>
			<rect x="338.8" y="350.5" fill="#939598" width="327.3" height="136.7"/>
			<rect x="338.3" y="350" fill="#939598" width="327.3" height="136.7"/>
			<rect x="337.8" y="349.5" fill="#939598" width="327.3" height="136.7"/>
			<rect x="337.3" y="349" fill="#939598" width="327.3" height="136.7"/>
			<rect x="336.8" y="348.5" fill="#939598" width="327.3" height="136.7"/>
			<rect x="336.3" y="348" fill="#939598" width="327.3" height="136.7"/>
			<rect x="335.8" y="347.5" fill="#939598" width="327.3" height="136.7"/>
			<rect x="335.3" y="347" fill="#939598" width="327.3" height="136.7"/>
			<rect x="334.8" y="346.5" fill="#939598" width="327.3" height="136.7"/>
			<rect x="334.3" y="346" fill="#939598" width="327.3" height="136.7"/>
			<rect x="333.8" y="345.5" fill="#939598" width="327.3" height="136.7"/>
			<rect x="333.3" y="345" fill="#939598" width="327.3" height="136.7"/>
			<rect x="332.8" y="344.5" fill="#939598" width="327.3" height="136.7"/>
			<rect x="332.3" y="344" fill="#939598" width="327.3" height="136.7"/>
			<rect x="331.8" y="343.5" fill="#939598" width="327.3" height="136.7"/>
			<rect x="331.3" y="343" fill="#939598" width="327.3" height="136.7"/>
			<rect x="330.8" y="342.5" fill="#939598" width="327.3" height="136.7"/>
			<rect x="330.3" y="342" fill="#939598" width="327.3" height="136.7"/>
			<rect x="329.8" y="341.5" fill="#939598" width="327.3" height="136.7"/>
			<rect x="329.3" y="341" fill="#939598" width="327.3" height="136.7"/>
			<rect x="328.8" y="340.5" fill="#939598" width="327.3" height="136.7"/>
			<rect x="328.3" y="340" fill="#939598" width="327.3" height="136.7"/>
			<rect x="327.8" y="339.5" fill="#939598" width="327.3" height="136.7"/>
			<rect x="327.3" y="339" fill="#939598" width="327.3" height="136.7"/>
			<rect x="326.8" y="338.5" fill="#939598" width="327.3" height="136.7"/>
			<rect x="326.3" y="338" fill="#939598" width="327.3" height="136.7"/>
			<rect x="325.8" y="337.5" fill="#939598" width="327.3" height="136.7"/>
			<rect x="325.3" y="337" fill="#939598" width="327.3" height="136.7"/>
			<rect x="324.8" y="336.5" fill="#939598" width="327.3" height="136.7"/>
			<rect x="324.3" y="336" fill="#939598" width="327.3" height="136.7"/>
			<rect x="323.8" y="335.5" fill="#939598" width="327.3" height="136.7"/>
			<rect x="323.3" y="335" fill="#939598" width="327.3" height="136.7"/>
			<rect x="322.8" y="334.5" fill="#939598" width="327.3" height="136.7"/>
			<rect x="322.3" y="334" fill="#939598" width="327.3" height="136.7"/>
			<rect x="321.8" y="333.5" fill="#939598" width="327.3" height="136.7"/>
			<rect x="321.3" y="333" fill="#939598" width="327.3" height="136.7"/>
			<rect x="320.8" y="332.5" fill="#939598" width="327.3" height="136.7"/>
			<rect x="320.3" y="332" fill="#939598" width="327.3" height="136.7"/>
			<rect x="319.8" y="331.5" fill="#939598" width="327.3" height="136.7"/>
			<rect x="319.3" y="331" fill="#939598" width="327.3" height="136.7"/>
			<rect x="318.8" y="330.5" fill="#939598" width="327.3" height="136.7"/>
			<rect x="318.3" y="330" fill="#939598" width="327.3" height="136.7"/>
			<rect x="317.8" y="329.5" fill="#939598" width="327.3" height="136.7"/>
			<rect x="317.3" y="329" fill="#939598" width="327.3" height="136.7"/>
			<rect x="316.8" y="328.5" fill="#939598" width="327.3" height="136.7"/>
			<rect x="316.3" y="328" fill="#939598" width="327.3" height="136.7"/>
			<rect x="315.8" y="327.5" fill="#939598" width="327.3" height="136.7"/>
			<rect x="315.3" y="327" fill="#939598" width="327.3" height="136.7"/>
			<rect x="314.8" y="326.5" fill="#939598" width="327.3" height="136.7"/>
			<rect x="314.3" y="326" fill="#939598" width="327.3" height="136.7"/>
			<rect x="313.8" y="325.5" fill="#939598" width="327.3" height="136.7"/>
			<rect x="313.3" y="325" fill="#939598" width="327.3" height="136.7"/>
			<rect x="312.8" y="324.5" fill="#939598" width="327.3" height="136.7"/>
			<rect x="312.3" y="324" fill="#939598" width="327.3" height="136.7"/>
			<rect x="311.8" y="323.5" fill="#939598" width="327.3" height="136.7"/>
			<rect x="311.3" y="323" fill="#939598" width="327.3" height="136.7"/>
			<rect x="310.8" y="322.5" fill="#939598" width="327.3" height="136.7"/>
			<rect x="310.3" y="322" fill="#939598" width="327.3" height="136.7"/>
			<rect x="309.8" y="321.5" fill="#939598" width="327.3" height="136.7"/>
			<rect x="309.3" y="321" fill="#939598" width="327.3" height="136.7"/>
			<rect x="308.8" y="320.5" fill="#939598" width="327.3" height="136.7"/>
			<rect x="308.3" y="320" fill="#939598" width="327.3" height="136.7"/>
			<rect x="307.8" y="319.5" fill="#939598" width="327.3" height="136.7"/>
			<rect x="307.3" y="319" fill="#939598" width="327.3" height="136.7"/>
			<rect x="306.8" y="318.5" fill="#939598" width="327.3" height="136.7"/>
			<rect x="306.3" y="318" fill="#939598" width="327.3" height="136.7"/>
			<rect x="305.8" y="317.5" fill="#939598" width="327.3" height="136.7"/>
			<rect x="305.3" y="317" fill="#939598" width="327.3" height="136.7"/>
			<rect x="304.8" y="316.5" fill="#939598" width="327.3" height="136.7"/>
			<rect x="304.3" y="316" fill="#939598" width="327.3" height="136.7"/>
			<rect x="303.8" y="315.5" fill="#939598" width="327.3" height="136.7"/>
			<rect x="303.3" y="315" fill="#939598" width="327.3" height="136.7"/>
			<rect x="302.8" y="314.5" fill="#939598" width="327.3" height="136.7"/>
			<rect x="302.3" y="314" fill="#939598" width="327.3" height="136.7"/>
			<rect x="301.8" y="313.5" fill="#939598" width="327.3" height="136.7"/>
			<rect x="301.3" y="313" fill="#939598" width="327.3" height="136.7"/>
			<rect x="300.8" y="312.5" fill="#939598" width="327.3" height="136.7"/>
			<rect x="300.3" y="312" fill="#939598" width="327.3" height="136.7"/>
			<rect x="299.8" y="311.5" fill="#939598" width="327.3" height="136.7"/>
			<rect x="299.3" y="311" fill="#939598" width="327.3" height="136.7"/>
			<rect x="298.8" y="310.5" fill="#939598" width="327.3" height="136.7"/>
			<rect x="298.3" y="310" fill="#939598" width="327.3" height="136.7"/>
			<rect x="297.8" y="309.5" fill="#939598" width="327.3" height="136.7"/>
			<rect x="297.3" y="309" fill="#939598" width="327.3" height="136.7"/>
			<rect x="296.8" y="308.5" fill="#939598" width="327.3" height="136.7"/>
			<rect x="296.3" y="308" fill="#939598" width="327.3" height="136.7"/>
			<rect x="295.8" y="307.5" fill="#939598" width="327.3" height="136.7"/>
			<rect x="295.3" y="307" fill="#939598" width="327.3" height="136.7"/>
			<rect x="294.8" y="306.5" fill="#939598" width="327.3" height="136.7"/>
			<rect x="294.3" y="306" fill="#939598" width="327.3" height="136.7"/>
			<rect x="293.8" y="305.5" fill="#939598" width="327.3" height="136.7"/>
			<rect x="293.3" y="305" fill="#939598" width="327.3" height="136.7"/>
			<rect x="292.8" y="304.5" fill="#939598" width="327.3" height="136.7"/>
			<rect x="292.3" y="304" fill="#939598" width="327.3" height="136.7"/>
			<rect x="291.8" y="303.5" fill="#939598" width="327.3" height="136.7"/>
			<rect x="291.3" y="303" fill="#939598" width="327.3" height="136.7"/>
			<rect x="290.8" y="302.5" fill="#939598" width="327.3" height="136.7"/>
			<rect x="290.3" y="302" fill="#939598" width="327.3" height="136.7"/>
			<rect x="289.8" y="301.5" fill="#939598" width="327.3" height="136.7"/>
			<rect x="289.3" y="301" fill="#939598" width="327.3" height="136.7"/>
			<rect x="288.8" y="300.5" fill="#939598" width="327.3" height="136.7"/>
			<rect x="288.3" y="300" fill="#939598" width="327.3" height="136.7"/>
			<rect x="287.8" y="299.5" fill="#939598" width="327.3" height="136.7"/>
			<rect x="287.3" y="299" fill="#939598" width="327.3" height="136.7"/>
			<rect x="286.8" y="298.5" fill="#939598" width="327.3" height="136.7"/>
			<rect x="286.3" y="298" fill="#939598" width="327.3" height="136.7"/>
			<rect x="285.8" y="297.5" fill="#939598" width="327.3" height="136.7"/>
			<rect x="285.3" y="297" fill="#939598" width="327.3" height="136.7"/>
			<rect x="284.8" y="296.5" fill="#939598" width="327.3" height="136.7"/>
			<rect x="284.3" y="296" fill="#939598" width="327.3" height="136.7"/>
			<rect x="283.8" y="295.5" fill="#939598" width="327.3" height="136.7"/>
			<rect x="283.3" y="295" fill="#939598" width="327.3" height="136.7"/>
			<rect x="282.8" y="294.5" fill="#939598" width="327.3" height="136.7"/>
			<rect x="282.3" y="294" fill="#939598" width="327.3" height="136.7"/>
			<rect x="281.8" y="293.5" fill="#939598" width="327.3" height="136.7"/>
			<rect x="281.3" y="293" fill="#939598" width="327.3" height="136.7"/>
			<rect x="280.8" y="292.5" fill="#939598" width="327.3" height="136.7"/>
			<rect x="280.3" y="292" fill="#939598" width="327.3" height="136.7"/>
			<rect x="279.8" y="291.5" fill="#939598" width="327.3" height="136.7"/>
			<rect x="279.3" y="291" fill="#939598" width="327.3" height="136.7"/>
			<rect x="278.8" y="290.5" fill="#939598" width="327.3" height="136.7"/>
			<rect x="278.3" y="290" fill="#939598" width="327.3" height="136.7"/>
			<rect x="277.8" y="289.5" fill="#939598" width="327.3" height="136.7"/>
			<rect x="277.3" y="289" fill="#939598" width="327.3" height="136.7"/>
			<rect x="276.8" y="288.5" fill="#939598" width="327.3" height="136.7"/>
			<rect x="276.3" y="288" fill="#939598" width="327.3" height="136.7"/>
			<rect x="275.8" y="287.5" fill="#939598" width="327.3" height="136.7"/>
			<rect x="275.3" y="287" fill="#939598" width="327.3" height="136.7"/>
			<rect x="274.8" y="286.5" fill="#939598" width="327.3" height="136.7"/>
			<rect x="274.3" y="286" fill="#939598" width="327.3" height="136.7"/>
			<rect x="273.8" y="285.5" fill="#939598" width="327.3" height="136.7"/>
			<rect x="273.3" y="285" fill="#939598" width="327.3" height="136.7"/>
			<rect x="272.8" y="284.5" fill="#939598" width="327.3" height="136.7"/>
			<rect x="272.3" y="284" fill="#939598" width="327.3" height="136.7"/>
			<rect x="271.8" y="283.5" fill="#939598" width="327.3" height="136.7"/>
			<rect x="271.3" y="283" fill="#939598" width="327.3" height="136.7"/>
			<rect x="270.8" y="282.5" fill="#939598" width="327.3" height="136.7"/>
			<rect x="270.3" y="282" fill="#939598" width="327.3" height="136.7"/>
			<rect x="269.8" y="281.5" fill="#939598" width="327.3" height="136.7"/>
			<rect x="269.3" y="281" fill="#939598" width="327.3" height="136.7"/>
			<rect x="268.8" y="280.5" fill="#939598" width="327.3" height="136.7"/>
			<rect x="268.3" y="280" fill="#939598" width="327.3" height="136.7"/>
			<rect x="267.8" y="279.5" fill="#939598" width="327.3" height="136.7"/>
			<rect x="267.3" y="279" fill="#939598" width="327.3" height="136.7"/>
			<rect x="266.8" y="278.5" fill="#939598" width="327.3" height="136.7"/>
			<rect x="266.3" y="278" fill="#939598" width="327.3" height="136.7"/>
			<rect x="265.8" y="277.5" fill="#939598" width="327.3" height="136.7"/>
			<rect x="265.3" y="277" fill="#939598" width="327.3" height="136.7"/>
			<rect x="264.8" y="276.5" fill="#939598" width="327.3" height="136.7"/>
			<rect x="264.3" y="276" fill="#939598" width="327.3" height="136.7"/>
			<rect x="263.8" y="275.5" fill="#939598" width="327.3" height="136.7"/>
			<rect x="263.3" y="275" fill="#939598" width="327.3" height="136.7"/>
			<rect x="262.8" y="274.5" fill="#939598" width="327.3" height="136.7"/>
			<rect x="262.3" y="274" fill="#939598" width="327.3" height="136.7"/>
			<rect x="261.8" y="273.5" fill="#939598" width="327.3" height="136.7"/>
			<rect x="261.3" y="273" fill="#939598" width="327.3" height="136.7"/>
			<rect x="260.8" y="272.5" fill="#939598" width="327.3" height="136.7"/>
			<rect x="260.3" y="272" fill="#939598" width="327.3" height="136.7"/>
			<rect x="259.8" y="271.5" fill="#939598" width="327.3" height="136.7"/>
			<rect x="259.3" y="271" fill="#939598" width="327.3" height="136.7"/>
			<rect x="258.8" y="270.5" fill="#939598" width="327.3" height="136.7"/>
			<rect x="258.3" y="270" fill="#939598" width="327.3" height="136.7"/>
			<rect x="257.8" y="269.5" fill="#939598" width="327.3" height="136.7"/>
			<rect x="257.3" y="269" fill="#939598" width="327.3" height="136.7"/>
			<rect x="256.8" y="268.5" fill="#939598" width="327.3" height="136.7"/>
			<rect x="256.3" y="268" fill="#939598" width="327.3" height="136.7"/>
			<rect x="255.8" y="267.5" fill="#939598" width="327.3" height="136.7"/>
			<rect x="255.3" y="267" fill="#939598" width="327.3" height="136.7"/>
			<rect x="254.8" y="266.5" fill="#939598" width="327.3" height="136.7"/>
			<rect x="254.3" y="266" fill="#939598" width="327.3" height="136.7"/>
			<rect x="253.8" y="265.5" fill="#939598" width="327.3" height="136.7"/>
			<rect x="253.3" y="265" fill="#939598" width="327.3" height="136.7"/>
			<rect x="252.8" y="264.5" fill="#939598" width="327.3" height="136.7"/>
			<rect x="252.3" y="264" fill="#939598" width="327.3" height="136.7"/>
			<rect x="251.8" y="263.5" fill="#939598" width="327.3" height="136.7"/>
			<rect x="251.3" y="263" fill="#939598" width="327.3" height="136.7"/>
			<rect x="250.8" y="262.5" fill="#939598" width="327.3" height="136.7"/>
			<rect x="250.3" y="262" fill="#939598" width="327.3" height="136.7"/>
			<rect x="249.8" y="261.5" fill="#939598" width="327.3" height="136.7"/>
			<rect x="249.3" y="261" fill="#939598" width="327.3" height="136.7"/>
			<rect x="248.8" y="260.5" fill="#939598" width="327.3" height="136.7"/>
			<rect x="248.3" y="260" fill="#939598" width="327.3" height="136.7"/>
			<rect x="247.8" y="259.5" fill="#939598" width="327.3" height="136.7"/>
			<rect x="247.3" y="259" fill="#939598" width="327.3" height="136.7"/>
			<rect x="246.8" y="258.5" fill="#939598" width="327.3" height="136.7"/>
			<rect x="246.3" y="258" fill="#939598" width="327.3" height="136.7"/>
			<rect x="245.8" y="257.5" fill="#939598" width="327.3" height="136.7"/>
			<rect x="245.3" y="257" fill="#939598" width="327.3" height="136.7"/>
			<rect x="244.8" y="256.5" fill="#939598" width="327.3" height="136.7"/>
			<rect x="244.3" y="256" fill="#939598" width="327.3" height="136.7"/>
			<rect x="243.8" y="255.5" fill="#939598" width="327.3" height="136.7"/>
			<rect x="243.3" y="255" fill="#939598" width="327.3" height="136.7"/>
			<rect x="242.8" y="254.5" fill="#939598" width="327.3" height="136.7"/>
			<rect x="242.3" y="254" fill="#939598" width="327.3" height="136.7"/>
			<rect x="241.8" y="253.5" fill="#939598" width="327.3" height="136.7"/>
			<rect x="241.3" y="253" fill="#939598" width="327.3" height="136.7"/>
			<rect x="240.8" y="252.5" fill="#939598" width="327.3" height="136.7"/>
			<rect x="240.3" y="252" fill="#939598" width="327.3" height="136.7"/>
			<rect x="239.8" y="251.5" fill="#939598" width="327.3" height="136.7"/>
			<rect x="239.3" y="251" fill="#939598" width="327.3" height="136.7"/>
			<rect x="238.8" y="250.5" fill="#939598" width="327.3" height="136.7"/>
			<rect x="238.3" y="250" fill="#939598" width="327.3" height="136.7"/>
			<rect x="237.8" y="249.5" fill="#939598" width="327.3" height="136.7"/>
			<rect x="237.3" y="249" fill="#939598" width="327.3" height="136.7"/>
			<rect x="236.8" y="248.5" fill="#939598" width="327.3" height="136.7"/>
			<rect x="236.3" y="248" fill="#939598" width="327.3" height="136.7"/>
			<rect x="235.8" y="247.5" fill="#939598" width="327.3" height="136.7"/>
			<rect x="235.3" y="247" fill="#939598" width="327.3" height="136.7"/>
			<rect x="234.8" y="246.5" fill="#939598" width="327.3" height="136.7"/>
			<rect x="234.3" y="246" fill="#939598" width="327.3" height="136.7"/>
			<rect x="233.8" y="245.5" fill="#939598" width="327.3" height="136.7"/>
			<rect x="233.3" y="245" fill="#939598" width="327.3" height="136.7"/>
			<rect x="232.8" y="244.5" fill="#939598" width="327.3" height="136.7"/>
			<rect x="232.3" y="244" fill="#939598" width="327.3" height="136.7"/>
			<rect x="231.8" y="243.5" fill="#939598" width="327.3" height="136.7"/>
			<rect x="231.3" y="243" fill="#939598" width="327.3" height="136.7"/>
			<rect x="230.8" y="242.5" fill="#939598" width="327.3" height="136.7"/>
			<rect x="230.3" y="242" fill="#939598" width="327.3" height="136.7"/>
			<rect x="229.8" y="241.5" fill="#939598" width="327.3" height="136.7"/>
			<rect x="229.3" y="241" fill="#939598" width="327.3" height="136.7"/>
			<rect x="228.8" y="240.5" fill="#939598" width="327.3" height="136.7"/>
			<rect x="228.3" y="240" fill="#939598" width="327.3" height="136.7"/>
			<rect x="227.8" y="239.5" fill="#939598" width="327.3" height="136.7"/>
			<rect x="227.3" y="239" fill="#939598" width="327.3" height="136.7"/>
			<rect x="226.8" y="238.5" fill="#939598" width="327.3" height="136.7"/>
			<rect x="226.3" y="238" fill="#939598" width="327.3" height="136.7"/>
			<rect x="225.8" y="237.5" fill="#939598" width="327.3" height="136.7"/>
			<rect x="225.3" y="237" fill="#939598" width="327.3" height="136.7"/>
			<rect x="224.8" y="236.5" fill="#939598" width="327.3" height="136.7"/>
			<rect x="224.3" y="236" fill="#939598" width="327.3" height="136.7"/>
			<rect x="223.8" y="235.5" fill="#939598" width="327.3" height="136.7"/>
			<rect x="223.3" y="235" fill="#939598" width="327.3" height="136.7"/>
			<rect x="222.8" y="234.5" fill="#939598" width="327.3" height="136.7"/>
			<rect x="222.3" y="234" fill="#939598" width="327.3" height="136.7"/>
			<rect x="221.8" y="233.5" fill="#939598" width="327.3" height="136.7"/>
		</g>
		<rect x="221.8" y="233.5" fill="#E6E6EA" width="327.3" height="136.7"/>
		
			<rect x="221.8" y="233.5" fill="none" stroke="#E6E6EA" stroke-width="5" stroke-linejoin="round" stroke-miterlimit="10" width="327.3" height="136.7"/>
	</g>
</g>
<g id="Speakers">
	<circle fill="none" stroke="#F4F4F8" stroke-width="11" stroke-miterlimit="10" cx="302.9" cy="301.8" r="46.3"/>
	<circle fill="none" stroke="#F4F4F8" stroke-width="11" stroke-miterlimit="10" cx="467" cy="301.8" r="46.3"/>
	<circle display="none" fill="#6D6875" cx="300.9" cy="301.8" r="42.2"/>
	<radialGradient id="SVGID_1_" cx="302.8512" cy="301.8273" r="42.2025" gradientUnits="userSpaceOnUse">
		<stop  offset="0" style="stop-color:#FFFFFF"/>
		<stop  offset="4.728270e-002" style="stop-color:#EFEFEF"/>
		<stop  offset="0.2434" style="stop-color:#B2B0B1"/>
		<stop  offset="0.4311" style="stop-color:#7F7C7D"/>
		<stop  offset="0.6056" style="stop-color:#575455"/>
		<stop  offset="0.7638" style="stop-color:#3B3738"/>
		<stop  offset="0.9005" style="stop-color:#292526"/>
		<stop  offset="1" style="stop-color:#231F20"/>
	</radialGradient>
	<circle fill="url(#SVGID_1_)" stroke="#FFFFFF" stroke-width="3" stroke-miterlimit="10" cx="302.9" cy="301.8" r="42.2"/>
	<radialGradient id="SVGID_2_" cx="466.9669" cy="301.8273" r="42.2025" gradientUnits="userSpaceOnUse">
		<stop  offset="0" style="stop-color:#FFFFFF"/>
		<stop  offset="4.728270e-002" style="stop-color:#EFEFEF"/>
		<stop  offset="0.2434" style="stop-color:#B2B0B1"/>
		<stop  offset="0.4311" style="stop-color:#7F7C7D"/>
		<stop  offset="0.6056" style="stop-color:#575455"/>
		<stop  offset="0.7638" style="stop-color:#3B3738"/>
		<stop  offset="0.9005" style="stop-color:#292526"/>
		<stop  offset="1" style="stop-color:#231F20"/>
	</radialGradient>
	<circle fill="url(#SVGID_2_)" stroke="#FFFFFF" stroke-width="3" stroke-miterlimit="10" cx="467" cy="301.8" r="42.2"/>
	<radialGradient id="SVGID_3_" cx="302.8512" cy="301.8273" r="8.2645" gradientUnits="userSpaceOnUse">
		<stop  offset="0.6786" style="stop-color:#FFFFFF"/>
		<stop  offset="0.7931" style="stop-color:#8C8A8A"/>
		<stop  offset="0.8946" style="stop-color:#231F20"/>
	</radialGradient>
	<circle fill="url(#SVGID_3_)" cx="302.9" cy="301.8" r="8.3"/>
	<radialGradient id="SVGID_4_" cx="466.9669" cy="301.8273" r="8.2645" gradientUnits="userSpaceOnUse">
		<stop  offset="0.6786" style="stop-color:#FFFFFF"/>
		<stop  offset="0.7931" style="stop-color:#8C8A8A"/>
		<stop  offset="0.8946" style="stop-color:#231F20"/>
	</radialGradient>
	<circle fill="url(#SVGID_4_)" cx="467" cy="301.8" r="8.3"/>
</g>
<g id="tape">
	
		<rect x="361.6" y="259.6" fill="#F4F4F8" stroke="#FFFFFF" stroke-linejoin="round" stroke-miterlimit="10" width="47.8" height="84.4"/>
	
		<rect x="368.3" y="269.7" fill="#E6E6EA" stroke="#6D6875" stroke-linejoin="round" stroke-miterlimit="10" width="34.4" height="20.7"/>
</g>
</svg>
