<?xml version="1.0" encoding="utf-8"?>
<!-- Generator: Adobe Illustrator 18.1.0, SVG Export Plug-In . SVG Version: 6.00 Build 0)  -->
<svg version="1.1" xmlns="http://www.w3.org/2000/svg" xmlns:xlink="http://www.w3.org/1999/xlink" x="0px" y="0px"
	 viewBox="0 0 62 118.5" enable-background="new 0 0 62 118.5" xml:space="preserve">
<g id="bottle">
	<path fill="#009FB7" d="M50.3,118.5H11.8c-6.5,0-11.8-5.3-11.8-11.8V33.3c0-6.5,5.3-11.8,11.8-11.8h38.5c6.5,0,11.8,5.3,11.8,11.8
		v73.5C62,113.2,56.7,118.5,50.3,118.5z"/>
</g>
<g id="stripe">
	<rect y="57.3" fill="#FF006E" width="62" height="6.1"/>
	<rect y="70" fill="#FF006E" width="62" height="6.1"/>
</g>
<g id="top">
	<path fill="#FED766" d="M31,11.5L31,11.5c-1.2,0-2.3-1-2.3-2.2v-7C28.8,1,29.8,0,31,0h0c1.2,0,2.2,1,2.2,2.2v7
		C33.3,10.5,32.2,11.5,31,11.5z"/>
	<path fill="#009FB7" d="M31,23L31,23c-3,0-5.5-2.5-5.5-5.5v-9C25.5,5.5,28,3,31,3h0c3,0,5.5,2.5,5.5,5.5v9C36.5,20.5,34,23,31,23z"
		/>
	<path fill="#FED766" d="M45.8,21.5H17.2c-3.2,0-5.7-2.6-5.7-5.7v0c0-3.2,2.6-5.7,5.7-5.7h28.5c3.2,0,5.7,2.6,5.7,5.7v0
		C51.5,18.9,48.9,21.5,45.8,21.5z"/>
</g>
</svg>
