<?xml version="1.0" encoding="utf-8"?>
<!-- Generator: Adobe Illustrator 18.1.0, SVG Export Plug-In . SVG Version: 6.00 Build 0)  -->
<svg version="1.1" id="Layer_1" xmlns="http://www.w3.org/2000/svg" xmlns:xlink="http://www.w3.org/1999/xlink" x="0px" y="0px"
	 viewBox="232.3 234 328.7 192.7" enable-background="new 232.3 234 328.7 192.7" xml:space="preserve">
<g id="towel">
	<path fill="#FED766" d="M266.3,384.8h164.5c7.1,0,12.8-5.7,12.8-12.8c0-7.1-5.7-12.8-12.8-12.8H266.3c-4.6,0-8.3-3.7-8.3-8.3
		c0-4.6,3.7-8.3,8.3-8.3l164.9,0.1c15.9,0,29.3,13.4,29.3,29.2c0,16.1-13.1,29.2-29.2,29.2H256.6c-7.1,0-12.8,5.7-12.8,12.8
		s5.7,12.8,12.8,12.8h166h8.7c16.5,0,31.2-7.3,41.3-18.8c0.6-0.5,1.1-1,1.6-1.5l21.7-24.2l7.4-8.2l10.7-11.9l34.1-38
		c10.6-11.8,12.9-25.5,12.9-35c0-14.6-5.8-28.4-16.3-38.9c-10.4-10.3-24.2-16-38.6-16l-141-0.2c-9.3,0-23.1,4.2-31.8,12.1
		l-87.9,77.4c-0.7,0.6-1.4,1.4-1.9,2.1c-6.9,6.2-11.2,15.2-11.2,25.2C232.3,369.5,247.5,384.8,266.3,384.8z"/>
</g>
<g id="lines">
</g>
</svg>
